<?xml version="1.0" encoding="UTF-8"?>
<svg version="1.1" xmlns="http://www.w3.org/2000/svg" width="512" height="512">
<path d="M0 0 C168.96 0 337.92 0 512 0 C512 168.96 512 337.92 512 512 C343.04 512 174.08 512 0 512 C0 343.04 0 174.08 0 0 Z " fill="#FE0000" transform="translate(0,0)"/>
<path d="M0 0 C1.08945419 -0.00524185 2.17890839 -0.0104837 3.30137634 -0.0158844 C5.59845123 -0.02229256 7.89555898 -0.02098328 10.19262695 -0.01245117 C13.70648459 -0.00392653 17.21872406 -0.03274504 20.73242188 -0.06445312 C22.96744743 -0.06606491 25.20247586 -0.06548804 27.4375 -0.0625 C28.48656021 -0.07373398 29.53562042 -0.08496796 30.61647034 -0.09654236 C34.88058068 -0.05577841 37.94692629 0.1099658 41.85327148 1.90209961 C44.50090114 5.62760808 44.07811501 9.00557269 43.65234375 13.43359375 C44.39514587 13.4247113 45.137948 13.41582886 45.90325928 13.40667725 C52.9068428 13.32649631 59.9102671 13.26561189 66.91418076 13.22634506 C70.51492661 13.20547862 74.11529291 13.17717954 77.71582031 13.13183594 C81.19122288 13.0883425 84.66626063 13.06444954 88.14191437 13.05408478 C90.11180159 13.0431076 92.08154222 13.01188675 94.0512085 12.98040771 C95.85262299 12.97995453 95.85262299 12.97995453 97.69042969 12.97949219 C99.27594635 12.96616852 99.27594635 12.96616852 100.89349365 12.95257568 C104.34727009 13.55475732 105.51134569 14.71435101 107.65234375 17.43359375 C108.2265625 19.6875 108.2265625 19.6875 108.33984375 21.99609375 C108.50546925 24.80226299 108.74917134 26.72407653 109.65234375 29.43359375 C110.64234375 29.76359375 111.63234375 30.09359375 112.65234375 30.43359375 C114.3029006 37.03582114 114.35885112 43.16589246 111.65234375 49.43359375 C111.14052016 50.033675 110.62869658 50.63375626 110.10136318 51.25202179 C108.24994827 54.03942047 108.27858294 55.75837349 108.28053284 59.08874512 C108.27377533 60.24120224 108.26701782 61.39365936 108.26005554 62.58103943 C108.26777481 63.84142532 108.27549408 65.10181122 108.28344727 66.40039062 C108.28097874 67.74423021 108.27713979 69.08806787 108.27203369 70.43190002 C108.26369999 73.32336339 108.26449943 76.21462979 108.2722187 79.10609436 C108.28380216 83.67787795 108.27163927 88.24940812 108.25559998 92.82116699 C108.21940831 104.17546059 108.21317744 115.52974821 108.21569824 126.88409424 C108.21740863 135.71028653 108.2103154 144.53627196 108.17571968 153.36240625 C108.15891048 157.90753165 108.16073275 162.45215281 108.1765424 166.99727631 C108.18233397 169.82405808 108.17160937 172.65060003 108.15629578 175.47733879 C108.15078609 177.41361705 108.16519238 179.34991983 108.18016052 181.28614807 C108.16579453 183.01483376 108.16579453 183.01483376 108.15113831 184.77844238 C108.15134759 185.77984505 108.15155687 186.78124771 108.1517725 187.81299591 C107.49617332 191.25304975 106.48727289 192.40501257 103.65234375 194.43359375 C100.8755722 194.93975163 100.8755722 194.93975163 97.61755371 194.94825745 C96.38095505 194.9609819 95.14435638 194.97370636 93.87028503 194.98681641 C92.50271415 194.98063419 91.13514513 194.97402817 89.76757812 194.96704102 C88.32521176 194.97409942 86.88285281 194.98284411 85.44050598 194.9931488 C81.52518862 195.0156605 77.61027514 195.01269929 73.69491768 195.00382733 C70.42685939 194.9987196 67.15887715 195.00600815 63.8908267 195.01329941 C56.18219584 195.03030367 48.47376292 195.02672689 40.76513672 195.01000977 C32.81013667 194.99308157 24.85568507 195.00893102 16.90074492 195.04123265 C10.07174221 195.06791266 3.2429104 195.07520908 -3.5861392 195.06671757 C-7.6652821 195.0617844 -11.74409485 195.06402483 -15.82319641 195.08450508 C-19.65820422 195.10283801 -23.49242173 195.09693395 -27.32738686 195.07230568 C-28.73508114 195.06729032 -30.1428354 195.07080652 -31.5504818 195.08345413 C-33.47122443 195.09934729 -35.39215838 195.0814372 -37.31286621 195.06178284 C-38.38801231 195.06119653 -39.46315842 195.06061022 -40.5708847 195.06000614 C-43.34765625 194.43359375 -43.34765625 194.43359375 -45.69308472 192.33554745 C-47.73287593 188.7579568 -47.85063239 186.48367731 -47.85559082 182.37414551 C-47.86183078 181.67511376 -47.86807075 180.97608201 -47.8744998 180.25586748 C-47.89042183 177.91958152 -47.87782961 175.58434009 -47.86523438 173.24804688 C-47.87065588 171.57070813 -47.8777787 169.89337416 -47.88647461 168.21604919 C-47.90470761 163.66438303 -47.89764058 159.11307958 -47.88495827 154.56140709 C-47.87483047 149.79780475 -47.88422333 145.03423344 -47.89050293 140.27062988 C-47.89777998 132.27102076 -47.88819013 124.27155935 -47.86914062 116.27197266 C-47.84737176 107.02363322 -47.8544231 97.77564651 -47.87644625 88.52731562 C-47.89459861 80.58661966 -47.89715937 72.64602988 -47.88669157 64.70531988 C-47.88045574 59.96279462 -47.87962347 55.22043514 -47.89283752 50.47792053 C-47.90439303 46.01921644 -47.89637591 41.56096706 -47.8732605 37.10231209 C-47.86797179 35.46605751 -47.86949 33.82976466 -47.87831116 32.19352531 C-47.8892445 29.95951445 -47.87553207 27.72696007 -47.85559082 25.49304199 C-47.85408272 24.24313225 -47.85257462 22.9932225 -47.85102081 21.70543671 C-47.25543619 17.83416824 -46.11281289 16.1615036 -43.34765625 13.43359375 C-40.87402344 12.8659668 -40.87402344 12.8659668 -38.14453125 12.9453125 C-36.675 12.96948242 -36.675 12.96948242 -35.17578125 12.99414062 C-33.65210938 13.05698242 -33.65210938 13.05698242 -32.09765625 13.12109375 C-31.06640625 13.14365234 -30.03515625 13.16621094 -28.97265625 13.18945312 C-26.4295156 13.24832212 -23.88932512 13.3304931 -21.34765625 13.43359375 C-21.20714844 12.66273437 -21.06664062 11.891875 -20.921875 11.09765625 C-20.00361302 6.83742041 -18.58929149 4.27097566 -14.94360352 1.81225586 C-9.92276075 -0.11270165 -5.33417854 -0.01495576 0 0 Z " fill="#F0F0F0" transform="translate(388.34765625,28.56640625)"/>
<path d="M0 0 C1.00514145 0.00142502 2.0102829 0.00285004 3.04588318 0.00431824 C4.18368729 0.00124161 5.32149139 -0.00183502 6.49377441 -0.00500488 C7.72712021 0.00218063 8.960466 0.00936615 10.23118591 0.01676941 C12.1211454 0.01745674 12.1211454 0.01745674 14.04928589 0.01815796 C16.71674492 0.02118352 19.38386037 0.02801231 22.05125427 0.04142761 C25.47691995 0.05843475 28.90243827 0.06224147 32.32814121 0.06148243 C35.58750411 0.06181906 38.84683589 0.07065283 42.10618591 0.07926941 C43.95924095 0.08093864 43.95924095 0.08093864 45.84973145 0.0826416 C47.55170937 0.09221138 47.55170937 0.09221138 49.28807068 0.10197449 C50.79458946 0.10769218 50.79458946 0.10769218 52.33154297 0.11352539 C54.60227966 0.24723816 54.60227966 0.24723816 55.60227966 1.24723816 C55.67877585 3.90701064 55.69288212 6.54106618 55.66477966 9.20036316 C55.66099304 10.01156616 55.65720642 10.82276917 55.65330505 11.65855408 C55.63699598 15.13446793 55.60930586 18.61026484 55.58177185 22.08610535 C54.61502884 41.72169031 54.61502884 41.72169031 59.60227966 60.24723816 C61.64539772 60.99432646 61.64539772 60.99432646 63.60227966 61.24723816 C68.86291359 53.83452672 68.95061106 44.84468678 69.22727966 36.05973816 C69.26595154 35.02905212 69.30462341 33.99836609 69.34446716 32.93644714 C69.62884472 24.60380373 69.67203654 16.27635177 69.56565857 7.93986511 C69.55711853 7.07321228 69.54857849 6.20655945 69.53977966 5.31364441 C69.5281781 4.54995544 69.51657654 3.78626648 69.50462341 2.99943542 C69.60227966 1.24723816 69.60227966 1.24723816 70.60227966 0.24723816 C72.33501386 0.13268144 74.07239267 0.08761562 75.80882263 0.07023621 C76.92022614 0.05740097 78.03162964 0.04456573 79.17671204 0.03134155 C80.38707123 0.02395462 81.59743042 0.01656769 82.84446716 0.00895691 C84.07891571 0.00088516 85.31336426 -0.00718658 86.58522034 -0.01550293 C89.20303433 -0.02936315 91.82086654 -0.04007658 94.43870544 -0.04792786 C97.12773733 -0.05679798 99.81625414 -0.07768992 102.50511169 -0.10945129 C106.36839037 -0.15191273 110.23098475 -0.16826812 114.09446716 -0.17854309 C115.90393326 -0.20480522 115.90393326 -0.20480522 117.74995422 -0.2315979 C118.86766205 -0.22867233 119.98536987 -0.22574677 121.13694763 -0.22273254 C122.61468155 -0.23153191 122.61468155 -0.23153191 124.12226868 -0.24050903 C126.60227966 0.24723816 126.60227966 0.24723816 128.38136292 1.96411133 C130.49928268 5.92464299 130.72709265 9.74324977 130.76341248 14.17008972 C130.77302002 15.12167969 130.78262756 16.07326965 130.79252625 17.05369568 C130.79890106 18.58035858 130.79890106 18.58035858 130.80540466 20.13786316 C130.81110474 21.19704956 130.81680481 22.25623596 130.82267761 23.34751892 C130.83211106 25.58670559 130.83865501 27.82590604 130.84251404 30.06510925 C130.85220535 33.4711207 130.88323927 36.87652481 130.91477966 40.28239441 C130.92131184 42.46338043 130.92656147 44.64437074 130.93040466 46.82536316 C130.94275146 47.8350415 130.95509827 48.84471985 130.96781921 49.88499451 C130.93874442 59.22619883 128.31132997 66.67119726 123.78977966 74.74723816 C123.17755554 75.84431091 123.17755554 75.84431091 122.55296326 76.96354675 C108.26529336 101.82773945 91.37486049 125.59315177 72.60227966 147.24723816 C72.24539063 147.84016663 71.88850159 148.43309509 71.52079773 149.04399109 C69.33253646 152.34873003 67.69700439 154.01179015 63.74690247 154.86135864 C60.10918372 155.05838856 56.5330297 155.03350434 52.89134216 154.93083191 C51.55472923 154.91776103 50.21808254 154.90780388 48.88142395 154.90081787 C45.37884931 154.87420669 41.87833661 154.80555375 38.37657166 154.72789001 C34.79714347 154.65602497 31.21737899 154.62425738 27.63743591 154.58903503 C20.62487499 154.51416892 13.61367655 154.394845 6.60227966 154.24723816 C6.12184879 152.97092844 5.6418753 151.69444655 5.16209412 150.41789246 C4.89475967 149.70707016 4.62742523 148.99624786 4.35198975 148.2638855 C3.46357452 145.87413479 2.62808284 143.46746738 1.78977966 141.05973816 C-0.15184808 135.62771347 -2.61678955 130.52847802 -5.22584534 125.38786316 C-6.55641704 121.82193099 -6.60643631 119.02309994 -6.39772034 115.24723816 C-5.53791565 115.27044128 -4.67811096 115.29364441 -3.79225159 115.31755066 C12.74733105 115.61508194 12.74733105 115.61508194 27.60227966 109.24723816 C27.01380774 105.52305154 25.46818491 103.71018502 22.97727966 100.93473816 C18.17052946 95.21131604 14.06180828 89.12752628 9.97727966 82.87223816 C9.35643494 81.92824158 8.73559021 80.984245 8.09593201 80.01164246 C6.85010201 78.08718291 5.63155394 76.14482505 4.43894958 74.18693542 C2.66267136 71.24106951 2.66267136 71.24106951 0.60350037 68.63371277 C-6.63640231 58.03848715 -5.27625101 45.79442604 -5.03565979 33.4506073 C-4.95967198 29.53145606 -4.93314133 25.6143133 -4.91529846 21.69450378 C-4.8927315 19.20814843 -4.86744078 16.72181596 -4.83912659 14.23551941 C-4.82748978 13.06169205 -4.81585297 11.88786469 -4.80386353 10.6784668 C-4.78142075 9.59941574 -4.75897797 8.52036469 -4.7358551 7.40861511 C-4.71084679 5.98184196 -4.71084679 5.98184196 -4.68533325 4.52624512 C-4.27018762 1.2366857 -3.28303719 0.33852658 0 0 Z " fill="#FEE300" transform="translate(365.39772033691406,228.7527618408203)"/>
<path d="M0 0 C1.4688768 5.2328736 2.10632446 9.51764524 2 15 C2.92039062 14.48050781 3.84078125 13.96101562 4.7890625 13.42578125 C19.93953609 5.00840269 33.97041217 -0.8312246 51.46484375 2.69921875 C61.46263503 5.68720934 68.52695393 11.1181363 74 20 C74.90093154 22.70279461 75.12716692 24.25674048 75.13371277 27.02980042 C75.14011024 28.25591034 75.14011024 28.25591034 75.14663696 29.50679016 C75.14618378 30.39988388 75.14573059 31.2929776 75.14526367 32.21313477 C75.14862228 33.1564566 75.1519809 34.09977844 75.15544128 35.07168579 C75.16495339 38.19493927 75.16689432 41.31813918 75.16796875 44.44140625 C75.17118039 46.6070915 75.17454439 48.77277652 75.17805481 50.9384613 C75.18404619 55.47875471 75.18589462 60.01902909 75.18530273 64.55932617 C75.18520094 70.38942922 75.1988712 76.21941096 75.21607494 82.04948521 C75.22716724 86.5214647 75.22922282 90.99341457 75.22869301 95.46540642 C75.22987662 97.6156856 75.23431959 99.76596546 75.24202538 101.91623116 C75.25177246 104.91632852 75.24896858 107.91615852 75.24291992 110.91625977 C75.24853943 111.81137772 75.25415894 112.70649567 75.25994873 113.6287384 C75.22831734 119.77168266 75.22831734 119.77168266 73 122 C70.00341797 122.20629883 70.00341797 122.20629883 66.1171875 122.14453125 C65.41278534 122.13581497 64.70838318 122.12709869 63.9826355 122.11811829 C62.45495181 122.09784887 60.92732414 122.0729549 59.39978027 122.04400635 C56.98560124 121.99973596 54.5716801 121.97140721 52.15722656 121.94677734 C47.99335722 121.90063787 43.8306525 121.82601522 39.66748047 121.73754883 C37.94753379 121.70369161 36.22745956 121.67586429 34.50732422 121.65356445 C31.98617211 121.62024838 29.46604102 121.56809302 26.9453125 121.51171875 C26.17462433 121.50532883 25.40393616 121.4989389 24.6098938 121.49235535 C22.46142578 121.43237305 22.46142578 121.43237305 19 121 C16.45968091 117.18952137 16.7641764 114.1727828 16.83984375 109.765625 C16.8482579 108.53197708 16.8482579 108.53197708 16.85684204 107.27340698 C16.86932708 105.51135964 16.88602731 103.74933808 16.90652466 101.98736572 C16.9580744 97.43179065 16.97549325 92.87612942 16.9921875 88.3203125 C16.99591873 87.42533051 16.99964996 86.53034851 17.00349426 85.60824585 C17.02310494 78.43750877 16.88669737 71.28946445 16.5625 64.125 C16.50340454 62.73909668 16.50340454 62.73909668 16.44311523 61.32519531 C16.32520233 57.02469937 16.32520233 57.02469937 15 53 C12.00419377 52.00139792 10.31478603 51.91414926 7.25 52.75 C4.6749355 53.84898578 4.6749355 53.84898578 4 57 C3.89776106 59.02878624 3.85421004 61.06071529 3.84228516 63.09204102 C3.82689194 64.97397911 3.82689194 64.97397911 3.81118774 66.89393616 C3.80603086 67.89852214 3.80603086 67.89852214 3.80076981 68.92340279 C3.78896971 71.02039625 3.76951685 73.11718479 3.74765015 75.21409607 C3.68605261 81.17513255 3.63189559 87.13614471 3.59863281 93.09741211 C3.57773227 96.74500473 3.54247418 100.39221816 3.49787521 104.03959465 C3.48368531 105.43064868 3.47498604 106.82176973 3.47182083 108.21289253 C3.46693326 110.15446093 3.44220339 112.09594905 3.41650391 114.03735352 C3.40841705 115.14305191 3.4003302 116.24875031 3.39199829 117.38795471 C3.26263885 118.24992966 3.13327942 119.1119046 3 120 C-0.7158431 122.47722873 -2.50943801 122.2195246 -6.94140625 122.15234375 C-7.64109024 122.14404037 -8.34077423 122.135737 -9.06166077 122.12718201 C-11.37476927 122.09601991 -13.68720293 122.04890897 -16 122 C-17.61832397 121.97135528 -19.23665085 121.94287448 -20.85498047 121.91455078 C-25.03296341 121.8358954 -29.21015169 121.73645465 -33.38745117 121.62768555 C-35.98671919 121.56124184 -38.5860986 121.50227794 -41.18554688 121.44335938 C-42.84115734 121.4014941 -44.49675687 121.35919375 -46.15234375 121.31640625 C-46.92819321 121.29969376 -47.70404266 121.28298126 -48.50340271 121.26576233 C-53.88563284 121.11436716 -53.88563284 121.11436716 -55 120 C-55.1130755 118.16924251 -55.15683378 116.3341697 -55.17358398 114.5 C-55.18707382 113.31946045 -55.20056366 112.1389209 -55.21446228 110.92260742 C-55.22490067 109.62814697 -55.23533905 108.33368652 -55.24609375 107 C-55.26162293 105.64883653 -55.2778344 104.29768074 -55.29469299 102.9465332 C-55.36507048 97.21363539 -55.42419889 91.48064564 -55.47680664 85.74755859 C-55.61287916 52.64940866 -55.61287916 52.64940866 -60.40234375 19.9921875 C-61.15628452 16.21755594 -61.23450969 12.83032487 -61 9 C-53.49428965 7.40994963 -45.96280033 6.18777856 -38.375 5.0625 C-30.86188305 3.9360893 -23.38580726 2.74734955 -15.9375 1.25 C-10.4879712 0.18316103 -5.54199399 -0.29689254 0 0 Z " fill="#FEE300" transform="translate(274,225)"/>
<path d="M0 0 C0.47308594 0.969375 0.94617188 1.93875 1.43359375 2.9375 C6.97597279 14.2097021 12.64544936 25.49905837 19.60546875 35.9765625 C20.02707275 36.61190918 20.44867676 37.24725586 20.88305664 37.90185547 C21.69135412 39.10468856 22.51162899 40.29958703 23.34545898 41.48486328 C24.84799816 43.704152 25.97120008 45.39963251 26.1015625 48.1171875 C24.40124585 51.02340248 21.9971174 52.46541839 19.25 54.375 C14.07864707 58.08917246 9.59370025 61.31456817 7 67.3125 C7 74.88331965 11.36300103 81.87496357 14.9375 88.3125 C23.23541296 103.84672087 27.25499873 118.50267776 22.4375 136 C14.00986435 159.08821018 -7.40868536 170.12955785 -28.3671875 180.09594727 C-44.40063363 187.49316437 -44.40063363 187.49316437 -50 186 C-56.23580356 178.83576248 -60.24654984 169.24746028 -64.625 160.875 C-65.7548305 158.72425581 -66.88606761 156.57426209 -68.0184021 154.42483521 C-68.71693788 153.09784749 -69.41385828 151.77000757 -70.10879517 150.44113159 C-70.42947968 149.83004547 -70.75016418 149.21895935 -71.08056641 148.58935547 C-71.39052551 147.99572205 -71.70048462 147.40208862 -72.01983643 146.79046631 C-72.69966525 145.54862194 -73.41869901 144.32775633 -74.16717529 143.1260376 C-77.00321768 138.55320231 -77.00321768 138.55320231 -76.98681641 135.73339844 C-75.71058162 133.49162037 -74.41000389 132.61092437 -72.2109375 131.265625 C-71.43363281 130.77320313 -70.65632813 130.28078125 -69.85546875 129.7734375 C-68.22580884 128.77254401 -66.59561638 127.772517 -64.96484375 126.7734375 C-57.42922032 121.99716386 -50.69368607 116.25572819 -48.328125 107.32421875 C-46.63937514 95.36224056 -55.83176242 85.08297569 -62.2109375 75.7734375 C-68.38840166 66.19701925 -68.20314682 54.02230284 -67 43 C-63.60426336 28.91901208 -53.549075 19.31722815 -41.62109375 11.8984375 C-29.04408937 4.61139739 -14.635529 -0.29271058 0 0 Z " fill="#FEE300" transform="translate(94,174)"/>
<path d="M0 0 C1.08945419 -0.00524185 2.17890839 -0.0104837 3.30137634 -0.0158844 C5.59845123 -0.02229256 7.89555898 -0.02098328 10.19262695 -0.01245117 C13.70648459 -0.00392653 17.21872406 -0.03274504 20.73242188 -0.06445312 C22.96744743 -0.06606491 25.20247586 -0.06548804 27.4375 -0.0625 C28.48656021 -0.07373398 29.53562042 -0.08496796 30.61647034 -0.09654236 C31.59776413 -0.08716141 32.57905792 -0.07778046 33.59008789 -0.06811523 C34.8786544 -0.06786598 34.8786544 -0.06786598 36.19325256 -0.06761169 C39.89547099 0.68696465 41.23429886 1.45730189 43.65234375 4.43359375 C44.39580987 8.49579626 44.28257914 12.51921795 44.2199707 16.63769531 C44.22070084 17.88673645 44.22143097 19.13577759 44.22218323 20.42266846 C44.21929697 23.84440228 44.1942296 27.26462671 44.15931344 30.68609333 C44.1280507 34.26283125 44.1251193 37.83958941 44.1191864 41.41644287 C44.10364757 48.18803645 44.06261906 54.95922627 44.01243895 61.73064208 C43.95654631 69.44032548 43.92905927 77.15002819 43.90396178 84.85986376 C43.85170285 100.71800756 43.76376037 116.57574859 43.65234375 132.43359375 C42.39444336 131.49888012 41.1377679 130.56251792 39.8815918 129.62548828 C39.18164597 129.1042337 38.48170013 128.58297913 37.76054382 128.04592896 C34.5521225 125.59215299 31.50847174 122.96201303 28.46484375 120.30859375 C24.58309644 116.9401704 20.69210321 113.61366805 16.65234375 110.43359375 C12.97278084 111.99591396 10.48718582 114.26943457 7.58984375 116.99609375 C2.8043572 121.43377912 -2.11524225 125.56369029 -7.23046875 129.62109375 C-9.42302758 131.26048861 -9.42302758 131.26048861 -10.34765625 133.43359375 C-11.00765625 133.43359375 -11.66765625 133.43359375 -12.34765625 133.43359375 C-12.47991214 122.29576572 -12.61040546 111.15791844 -12.73880768 100.02004528 C-12.79851821 94.84514054 -12.85877729 89.67024355 -12.92041016 84.49536133 C-13.18626939 62.140914 -13.4492791 39.79003406 -13.34765625 17.43359375 C-17.31718524 17.55158319 -21.28646406 17.67581174 -25.25561523 17.8059082 C-26.60679772 17.84930598 -27.95803678 17.89097745 -29.30932617 17.9309082 C-31.24802326 17.98849327 -33.18651901 18.05273673 -35.125 18.1171875 C-36.29281006 18.15384521 -37.46062012 18.19050293 -38.66381836 18.22827148 C-41.2654542 18.13435563 -41.2654542 18.13435563 -42.34765625 19.43359375 C-42.44682215 21.60821841 -42.47398016 23.78612826 -42.47463989 25.9630127 C-42.47619988 26.6532819 -42.47775987 27.34355111 -42.47936714 28.05473757 C-42.48337931 30.38482025 -42.48018667 32.71483862 -42.47705078 35.04492188 C-42.47840473 36.70845071 -42.48018462 38.37197924 -42.48236084 40.0355072 C-42.48693598 44.5663698 -42.48514528 49.09720973 -42.48198175 53.62807274 C-42.47945857 58.35886066 -42.48179557 63.08964658 -42.48336792 67.82043457 C-42.48518974 75.76652374 -42.48278299 83.71260364 -42.47802734 91.65869141 C-42.4725847 100.85919898 -42.47434735 110.0596844 -42.47985375 119.26019144 C-42.48438453 127.14466495 -42.4850356 135.02913177 -42.48241508 142.91360617 C-42.48085211 147.62918047 -42.48065907 152.34474435 -42.48395157 157.06031799 C-42.48682978 161.49253444 -42.48485551 165.92472218 -42.47905731 170.3569355 C-42.47772944 171.98842382 -42.47812428 173.61991452 -42.48031998 175.2514019 C-42.48303045 177.46902603 -42.47965165 179.68655671 -42.47463989 181.9041748 C-42.47426287 183.14821831 -42.47388584 184.39226181 -42.47349739 185.6740036 C-42.66247785 188.34349253 -42.66247785 188.34349253 -41.34765625 189.43359375 C-39.48737591 189.53009812 -37.62338596 189.55546667 -35.76060486 189.55384827 C-33.94108559 189.55591026 -33.94108559 189.55591026 -32.08480835 189.55801392 C-30.72833228 189.55447431 -29.37185645 189.5508395 -28.01538086 189.54711914 C-26.59653221 189.54683727 -25.17768341 189.54699499 -23.75883484 189.54756165 C-19.89536824 189.54784964 -16.03193242 189.54195265 -12.16847301 189.53498769 C-8.13523052 189.52875442 -4.1019874 189.52815037 -0.06874084 189.52696228 C7.57399843 189.52384889 15.21672348 189.51563539 22.85945648 189.50561279 C31.55822394 189.49445191 40.25699206 189.48894127 48.95576489 189.48391736 C66.85463259 189.47345278 84.75348703 189.45585318 102.65234375 189.43359375 C102.65730897 188.53602718 102.65730897 188.53602718 102.6623745 187.62032795 C102.74361779 173.05611669 102.83571463 158.492002 102.93987083 143.92793751 C102.9899788 136.88484173 103.0364219 129.84175748 103.07421875 122.79858398 C103.11069509 116.00340053 103.15740904 109.20834917 103.21040726 102.41327477 C103.2289607 99.81892795 103.24406512 97.22455413 103.25568771 94.63016701 C103.27253357 91.00046478 103.30156543 87.37105154 103.33349609 83.74145508 C103.33673637 82.12736504 103.33673637 82.12736504 103.34004211 80.48066711 C103.3512056 79.48933777 103.36236908 78.49800842 103.37387085 77.47663879 C103.37940161 76.61844953 103.38493237 75.76026026 103.39063072 74.87606525 C103.68626823 72.11698905 104.51859615 69.9544916 105.65234375 67.43359375 C106.31234375 67.43359375 106.97234375 67.43359375 107.65234375 67.43359375 C107.74576653 83.40167987 107.81631271 99.3696774 107.85959244 115.33797073 C107.88022172 122.7522622 107.90834905 130.1663839 107.95410156 137.58056641 C107.99395844 144.04244084 108.01977391 150.50419234 108.02869773 156.96618629 C108.03391453 160.38813732 108.04618275 163.80973665 108.07526398 167.23157501 C108.10419391 171.05075658 108.10830394 174.8692035 108.10644531 178.68847656 C108.12082642 179.8242363 108.13520752 180.95999603 108.15002441 182.13017273 C108.14452576 183.17061234 108.1390271 184.21105194 108.13336182 185.28302002 C108.13704899 186.18637714 108.14073616 187.08973427 108.14453506 188.02046585 C107.4722591 191.31651728 106.35572745 192.46373477 103.65234375 194.43359375 C100.8755722 194.93975163 100.8755722 194.93975163 97.61755371 194.94825745 C96.38095505 194.9609819 95.14435638 194.97370636 93.87028503 194.98681641 C92.50271415 194.98063419 91.13514513 194.97402817 89.76757812 194.96704102 C88.32521176 194.97409942 86.88285281 194.98284411 85.44050598 194.9931488 C81.52518862 195.0156605 77.61027514 195.01269929 73.69491768 195.00382733 C70.42685939 194.9987196 67.15887715 195.00600815 63.8908267 195.01329941 C56.18219584 195.03030367 48.47376292 195.02672689 40.76513672 195.01000977 C32.81013667 194.99308157 24.85568507 195.00893102 16.90074492 195.04123265 C10.07174221 195.06791266 3.2429104 195.07520908 -3.5861392 195.06671757 C-7.6652821 195.0617844 -11.74409485 195.06402483 -15.82319641 195.08450508 C-19.65820422 195.10283801 -23.49242173 195.09693395 -27.32738686 195.07230568 C-28.73508114 195.06729032 -30.1428354 195.07080652 -31.5504818 195.08345413 C-33.47122443 195.09934729 -35.39215838 195.0814372 -37.31286621 195.06178284 C-38.38801231 195.06119653 -39.46315842 195.06061022 -40.5708847 195.06000614 C-43.34765625 194.43359375 -43.34765625 194.43359375 -45.69308472 192.33554745 C-47.73287593 188.7579568 -47.85063239 186.48367731 -47.85559082 182.37414551 C-47.86183078 181.67511376 -47.86807075 180.97608201 -47.8744998 180.25586748 C-47.89042183 177.91958152 -47.87782961 175.58434009 -47.86523438 173.24804688 C-47.87065588 171.57070813 -47.8777787 169.89337416 -47.88647461 168.21604919 C-47.90470761 163.66438303 -47.89764058 159.11307958 -47.88495827 154.56140709 C-47.87483047 149.79780475 -47.88422333 145.03423344 -47.89050293 140.27062988 C-47.89777998 132.27102076 -47.88819013 124.27155935 -47.86914062 116.27197266 C-47.84737176 107.02363322 -47.8544231 97.77564651 -47.87644625 88.52731562 C-47.89459861 80.58661966 -47.89715937 72.64602988 -47.88669157 64.70531988 C-47.88045574 59.96279462 -47.87962347 55.22043514 -47.89283752 50.47792053 C-47.90439303 46.01921644 -47.89637591 41.56096706 -47.8732605 37.10231209 C-47.86797179 35.46605751 -47.86949 33.82976466 -47.87831116 32.19352531 C-47.8892445 29.95951445 -47.87553207 27.72696007 -47.85559082 25.49304199 C-47.85408272 24.24313225 -47.85257462 22.9932225 -47.85102081 21.70543671 C-47.25543619 17.83416824 -46.11281289 16.1615036 -43.34765625 13.43359375 C-40.87402344 12.8659668 -40.87402344 12.8659668 -38.14453125 12.9453125 C-36.675 12.96948242 -36.675 12.96948242 -35.17578125 12.99414062 C-33.65210938 13.05698242 -33.65210938 13.05698242 -32.09765625 13.12109375 C-31.06640625 13.14365234 -30.03515625 13.16621094 -28.97265625 13.18945312 C-26.4295156 13.24832212 -23.88932512 13.3304931 -21.34765625 13.43359375 C-21.20714844 12.66273437 -21.06664062 11.891875 -20.921875 11.09765625 C-20.00361302 6.83742041 -18.58929149 4.27097566 -14.94360352 1.81225586 C-9.92276075 -0.11270165 -5.33417854 -0.01495576 0 0 Z " fill="#6A83A4" transform="translate(388.34765625,28.56640625)"/>
<path d="M0 0 C6.10425796 0.01862947 12.00686536 0.58735413 18.0625 1.3125 C25.85083133 2.21548427 32.67730301 1.92970034 40.3984375 0.703125 C46.33553782 -0.1048103 52.20150908 0.01914401 58.1875 0.1875 C59.17542361 4.88036355 59.11890423 8.93397196 58.6640625 13.69921875 C58.52895317 15.17870185 58.39394769 16.65819443 58.2590332 18.13769531 C58.18592926 18.90907837 58.11282532 19.68046143 58.0375061 20.47521973 C55.50557926 47.47923429 55.06688011 74.29630702 55.22387695 101.40527344 C55.23038017 102.95542648 55.23038017 102.95542648 55.23701477 104.53689575 C55.24553336 106.50638078 55.25815982 108.47585324 55.27531433 110.44528198 C55.27856216 111.32008209 55.28181 112.1948822 55.28515625 113.09619141 C55.29039307 113.86524811 55.29562988 114.63430481 55.30102539 115.42666626 C55.1875 117.1875 55.1875 117.1875 54.1875 118.1875 C52.44367465 118.28637792 50.69584457 118.31549032 48.94921875 118.31689453 C47.83135986 118.32004669 46.71350098 118.32319885 45.56176758 118.32644653 C44.34513428 118.3244223 43.12850098 118.32239807 41.875 118.3203125 C40.63580811 118.32126923 39.39661621 118.32222595 38.11987305 118.32321167 C35.49361719 118.32389374 32.86745367 118.32253538 30.24121094 118.31787109 C26.86821286 118.31217381 23.49529435 118.31545302 20.12229919 118.32144356 C16.91486323 118.3259177 13.707437 118.32278882 10.5 118.3203125 C9.2833667 118.32233673 8.0667334 118.32436096 6.81323242 118.32644653 C5.13644409 118.32171829 5.13644409 118.32171829 3.42578125 118.31689453 C2.43618408 118.31609894 1.44658691 118.31530334 0.42700195 118.31448364 C-1.8125 118.1875 -1.8125 118.1875 -2.8125 117.1875 C-2.89570499 115.54607083 -2.9088462 113.90104054 -2.89428711 112.25756836 C-2.88462669 110.66911354 -2.88462669 110.66911354 -2.87477112 109.04856873 C-2.86324509 107.88656448 -2.85171906 106.72456024 -2.83984375 105.52734375 C-2.82545346 103.05143546 -2.81164162 100.57552375 -2.79833984 98.09960938 C-2.79002136 96.79660889 -2.78170288 95.4936084 -2.77313232 94.15112305 C-2.63718249 71.74195908 -2.89031163 49.52618835 -4.8125 27.1875 C-5.11916353 23.39686574 -5.42024241 19.60585306 -5.71728516 15.81445312 C-5.90054496 13.50392365 -6.09116986 11.19396185 -6.29052734 8.88476562 C-6.37383301 7.88251953 -6.45713867 6.88027344 -6.54296875 5.84765625 C-6.61926514 4.96730713 -6.69556152 4.08695801 -6.77416992 3.17993164 C-6.78681885 2.5224292 -6.79946777 1.86492676 -6.8125 1.1875 C-5.02058682 -0.60441318 -2.42284241 0.01410269 0 0 Z " fill="#FEE300" transform="translate(142.8125,227.8125)"/>
<path d="M0 0 C1.08945419 -0.00524185 2.17890839 -0.0104837 3.30137634 -0.0158844 C5.59845123 -0.02229256 7.89555898 -0.02098328 10.19262695 -0.01245117 C13.70648459 -0.00392653 17.21872406 -0.03274504 20.73242188 -0.06445312 C22.96744743 -0.06606491 25.20247586 -0.06548804 27.4375 -0.0625 C28.48656021 -0.07373398 29.53562042 -0.08496796 30.61647034 -0.09654236 C31.59776413 -0.08716141 32.57905792 -0.07778046 33.59008789 -0.06811523 C34.8786544 -0.06786598 34.8786544 -0.06786598 36.19325256 -0.06761169 C39.89547099 0.68696465 41.23429886 1.45730189 43.65234375 4.43359375 C44.39580987 8.49579626 44.28257914 12.51921795 44.2199707 16.63769531 C44.22070084 17.88673645 44.22143097 19.13577759 44.22218323 20.42266846 C44.21929697 23.84440228 44.1942296 27.26462671 44.15931344 30.68609333 C44.1280507 34.26283125 44.1251193 37.83958941 44.1191864 41.41644287 C44.10364757 48.18803645 44.06261906 54.95922627 44.01243895 61.73064208 C43.95654631 69.44032548 43.92905927 77.15002819 43.90396178 84.85986376 C43.85170285 100.71800756 43.76376037 116.57574859 43.65234375 132.43359375 C42.39444336 131.49888012 41.1377679 130.56251792 39.8815918 129.62548828 C39.18164597 129.1042337 38.48170013 128.58297913 37.76054382 128.04592896 C34.5521225 125.59215299 31.50847174 122.96201303 28.46484375 120.30859375 C24.58309644 116.9401704 20.69210321 113.61366805 16.65234375 110.43359375 C12.97278084 111.99591396 10.48718582 114.26943457 7.58984375 116.99609375 C2.8043572 121.43377912 -2.11524225 125.56369029 -7.23046875 129.62109375 C-9.42302758 131.26048861 -9.42302758 131.26048861 -10.34765625 133.43359375 C-11.00765625 133.43359375 -11.66765625 133.43359375 -12.34765625 133.43359375 C-12.47991214 122.29576572 -12.61040546 111.15791844 -12.73880768 100.02004528 C-12.79851821 94.84514054 -12.85877729 89.67024355 -12.92041016 84.49536133 C-13.18626939 62.140914 -13.4492791 39.79003406 -13.34765625 17.43359375 C-17.31718524 17.55158319 -21.28646406 17.67581174 -25.25561523 17.8059082 C-26.60679772 17.84930598 -27.95803678 17.89097745 -29.30932617 17.9309082 C-31.24802326 17.98849327 -33.18651901 18.05273673 -35.125 18.1171875 C-36.29281006 18.15384521 -37.46062012 18.19050293 -38.66381836 18.22827148 C-41.2654542 18.13435563 -41.2654542 18.13435563 -42.34765625 19.43359375 C-42.44682215 21.60821841 -42.47398016 23.78612826 -42.47463989 25.9630127 C-42.47619988 26.6532819 -42.47775987 27.34355111 -42.47936714 28.05473757 C-42.48337931 30.38482025 -42.48018667 32.71483862 -42.47705078 35.04492188 C-42.47840473 36.70845071 -42.48018462 38.37197924 -42.48236084 40.0355072 C-42.48693598 44.5663698 -42.48514528 49.09720973 -42.48198175 53.62807274 C-42.47945857 58.35886066 -42.48179557 63.08964658 -42.48336792 67.82043457 C-42.48518974 75.76652374 -42.48278299 83.71260364 -42.47802734 91.65869141 C-42.4725847 100.85919898 -42.47434735 110.0596844 -42.47985375 119.26019144 C-42.48438453 127.14466495 -42.4850356 135.02913177 -42.48241508 142.91360617 C-42.48085211 147.62918047 -42.48065907 152.34474435 -42.48395157 157.06031799 C-42.48682978 161.49253444 -42.48485551 165.92472218 -42.47905731 170.3569355 C-42.47772944 171.98842382 -42.47812428 173.61991452 -42.48031998 175.2514019 C-42.48303045 177.46902603 -42.47965165 179.68655671 -42.47463989 181.9041748 C-42.47426287 183.14821831 -42.47388584 184.39226181 -42.47349739 185.6740036 C-42.66247785 188.34349253 -42.66247785 188.34349253 -41.34765625 189.43359375 C-39.48737591 189.53009812 -37.62338596 189.55546667 -35.76060486 189.55384827 C-33.94108559 189.55591026 -33.94108559 189.55591026 -32.08480835 189.55801392 C-30.72833228 189.55447431 -29.37185645 189.5508395 -28.01538086 189.54711914 C-26.59653221 189.54683727 -25.17768341 189.54699499 -23.75883484 189.54756165 C-19.89536824 189.54784964 -16.03193242 189.54195265 -12.16847301 189.53498769 C-8.13523052 189.52875442 -4.1019874 189.52815037 -0.06874084 189.52696228 C7.57399843 189.52384889 15.21672348 189.51563539 22.85945648 189.50561279 C31.55822394 189.49445191 40.25699206 189.48894127 48.95576489 189.48391736 C66.85463259 189.47345278 84.75348703 189.45585318 102.65234375 189.43359375 C102.65730897 188.53602718 102.65730897 188.53602718 102.6623745 187.62032795 C102.74361779 173.05611669 102.83571463 158.492002 102.93987083 143.92793751 C102.9899788 136.88484173 103.0364219 129.84175748 103.07421875 122.79858398 C103.11069509 116.00340053 103.15740904 109.20834917 103.21040726 102.41327477 C103.2289607 99.81892795 103.24406512 97.22455413 103.25568771 94.63016701 C103.27253357 91.00046478 103.30156543 87.37105154 103.33349609 83.74145508 C103.33673637 82.12736504 103.33673637 82.12736504 103.34004211 80.48066711 C103.3512056 79.48933777 103.36236908 78.49800842 103.37387085 77.47663879 C103.37940161 76.61844953 103.38493237 75.76026026 103.39063072 74.87606525 C103.68626823 72.11698905 104.51859615 69.9544916 105.65234375 67.43359375 C106.31234375 67.43359375 106.97234375 67.43359375 107.65234375 67.43359375 C107.74576653 83.40167987 107.81631271 99.3696774 107.85959244 115.33797073 C107.88022172 122.7522622 107.90834905 130.1663839 107.95410156 137.58056641 C107.99395844 144.04244084 108.01977391 150.50419234 108.02869773 156.96618629 C108.03391453 160.38813732 108.04618275 163.80973665 108.07526398 167.23157501 C108.10419391 171.05075658 108.10830394 174.8692035 108.10644531 178.68847656 C108.12082642 179.8242363 108.13520752 180.95999603 108.15002441 182.13017273 C108.14452576 183.17061234 108.1390271 184.21105194 108.13336182 185.28302002 C108.13704899 186.18637714 108.14073616 187.08973427 108.14453506 188.02046585 C107.4722591 191.31651728 106.35572745 192.46373477 103.65234375 194.43359375 C100.8755722 194.93975163 100.8755722 194.93975163 97.61755371 194.94825745 C96.38095505 194.9609819 95.14435638 194.97370636 93.87028503 194.98681641 C92.50271415 194.98063419 91.13514513 194.97402817 89.76757812 194.96704102 C88.32521176 194.97409942 86.88285281 194.98284411 85.44050598 194.9931488 C81.52518862 195.0156605 77.61027514 195.01269929 73.69491768 195.00382733 C70.42685939 194.9987196 67.15887715 195.00600815 63.8908267 195.01329941 C56.18219584 195.03030367 48.47376292 195.02672689 40.76513672 195.01000977 C32.81013667 194.99308157 24.85568507 195.00893102 16.90074492 195.04123265 C10.07174221 195.06791266 3.2429104 195.07520908 -3.5861392 195.06671757 C-7.6652821 195.0617844 -11.74409485 195.06402483 -15.82319641 195.08450508 C-19.65820422 195.10283801 -23.49242173 195.09693395 -27.32738686 195.07230568 C-28.73508114 195.06729032 -30.1428354 195.07080652 -31.5504818 195.08345413 C-33.47122443 195.09934729 -35.39215838 195.0814372 -37.31286621 195.06178284 C-38.38801231 195.06119653 -39.46315842 195.06061022 -40.5708847 195.06000614 C-43.34765625 194.43359375 -43.34765625 194.43359375 -45.69308472 192.33554745 C-47.73287593 188.7579568 -47.85063239 186.48367731 -47.85559082 182.37414551 C-47.86183078 181.67511376 -47.86807075 180.97608201 -47.8744998 180.25586748 C-47.89042183 177.91958152 -47.87782961 175.58434009 -47.86523438 173.24804688 C-47.87065588 171.57070813 -47.8777787 169.89337416 -47.88647461 168.21604919 C-47.90470761 163.66438303 -47.89764058 159.11307958 -47.88495827 154.56140709 C-47.87483047 149.79780475 -47.88422333 145.03423344 -47.89050293 140.27062988 C-47.89777998 132.27102076 -47.88819013 124.27155935 -47.86914062 116.27197266 C-47.84737176 107.02363322 -47.8544231 97.77564651 -47.87644625 88.52731562 C-47.89459861 80.58661966 -47.89715937 72.64602988 -47.88669157 64.70531988 C-47.88045574 59.96279462 -47.87962347 55.22043514 -47.89283752 50.47792053 C-47.90439303 46.01921644 -47.89637591 41.56096706 -47.8732605 37.10231209 C-47.86797179 35.46605751 -47.86949 33.82976466 -47.87831116 32.19352531 C-47.8892445 29.95951445 -47.87553207 27.72696007 -47.85559082 25.49304199 C-47.85408272 24.24313225 -47.85257462 22.9932225 -47.85102081 21.70543671 C-47.25543619 17.83416824 -46.11281289 16.1615036 -43.34765625 13.43359375 C-40.87402344 12.8659668 -40.87402344 12.8659668 -38.14453125 12.9453125 C-36.675 12.96948242 -36.675 12.96948242 -35.17578125 12.99414062 C-33.65210938 13.05698242 -33.65210938 13.05698242 -32.09765625 13.12109375 C-31.06640625 13.14365234 -30.03515625 13.16621094 -28.97265625 13.18945312 C-26.4295156 13.24832212 -23.88932512 13.3304931 -21.34765625 13.43359375 C-21.20714844 12.66273437 -21.06664062 11.891875 -20.921875 11.09765625 C-20.00361302 6.83742041 -18.58929149 4.27097566 -14.94360352 1.81225586 C-9.92276075 -0.11270165 -5.33417854 -0.01495576 0 0 Z M-14.34765625 6.43359375 C-16.71745638 9.38736873 -16.71745638 9.38736873 -16.34765625 13.43359375 C-13.37765625 13.43359375 -10.40765625 13.43359375 -7.34765625 13.43359375 C-7.34765625 49.73359375 -7.34765625 86.03359375 -7.34765625 123.43359375 C-1.19316899 118.904566 -1.19316899 118.904566 4.49609375 114.00390625 C5.40488281 113.153125 5.40488281 113.153125 6.33203125 112.28515625 C6.93273437 111.71539062 7.5334375 111.145625 8.15234375 110.55859375 C9.09980469 109.66914063 9.09980469 109.66914063 10.06640625 108.76171875 C11.59840353 107.32256979 13.12586916 105.87859919 14.65234375 104.43359375 C17.39967821 105.70793055 19.59235266 107.07471806 21.859375 109.078125 C22.44654297 109.59052734 23.03371094 110.10292969 23.63867188 110.63085938 C24.24130859 111.16388672 24.84394531 111.69691406 25.46484375 112.24609375 C26.65627391 113.2972028 27.85028041 114.34539897 29.046875 115.390625 C29.57128174 115.8544458 30.09568848 116.3182666 30.63598633 116.79614258 C32.47433786 118.28903805 34.34870731 119.66465557 36.27836609 121.03593445 C36.90985911 121.48522151 37.54135214 121.93450857 38.19198132 122.39741039 C38.91486072 122.91032115 38.91486072 122.91032115 39.65234375 123.43359375 C39.69902152 108.21324688 39.73431184 92.99290331 39.75596809 77.77250099 C39.76628981 70.70573156 39.78036716 63.63900655 39.80322266 56.57226562 C39.82525202 49.75772046 39.83689905 42.94322156 39.84209824 36.12864304 C39.84580534 33.52341356 39.85304392 30.91818673 39.86380386 28.31297684 C39.87823506 24.67555439 39.88032521 21.03832518 39.87939453 17.40087891 C39.88658508 16.31403305 39.89377563 15.22718719 39.90118408 14.10740662 C39.89843475 13.12020126 39.89568542 12.13299591 39.89285278 11.11587524 C39.89561816 9.82444327 39.89561816 9.82444327 39.89843941 8.50692177 C39.84283926 6.21153457 39.84283926 6.21153457 37.65234375 4.43359375 C35.53934441 4.12799811 35.53934441 4.12799811 33.08251953 4.17480469 C32.13458527 4.16850037 31.186651 4.16219604 30.20999146 4.15570068 C28.66938553 4.16177338 28.66938553 4.16177338 27.09765625 4.16796875 C26.04456268 4.1660553 24.99146912 4.16414185 23.90646362 4.16217041 C21.67543296 4.16080749 19.4443944 4.16451132 17.21337891 4.17285156 C13.79832083 4.18352817 10.38379139 4.17297066 6.96875 4.16015625 C4.80338425 4.16147824 2.63801884 4.16404146 0.47265625 4.16796875 C-1.06187698 4.16189606 -1.06187698 4.16189606 -2.62741089 4.15570068 C-4.05876877 4.16515717 -4.05876877 4.16515717 -5.51904297 4.17480469 C-6.77574295 4.17719147 -6.77574295 4.17719147 -8.05783081 4.17962646 C-10.6198238 4.46378018 -12.18314877 5.04300195 -14.34765625 6.43359375 Z " fill="#665E5E" transform="translate(388.34765625,28.56640625)"/>
<path d="M0 0 C5.94 0 11.88 0 18 0 C17.67 53.79 17.34 107.58 17 163 C9 164 9 164 0 163 C0 109.21 0 55.42 0 0 Z " fill="#E3E3E3" transform="translate(350,51)"/>
<path d="M0 0 C5.58850265 3.8524582 10.2728191 8.27478936 12 15 C12.88628633 22.89348765 13.09478766 30.53353874 8 37 C3.03009744 42.62654772 -3.01957376 45.42166303 -10.45776367 46.28540039 C-12.97890659 46.40032499 -15.47666163 46.40993853 -18 46.375 C-18.83789062 46.38660156 -19.67578125 46.39820313 -20.5390625 46.41015625 C-28.62334498 46.37261314 -35.80942902 44.81981591 -41.875 39.1875 C-42.59429687 38.54167969 -43.31359375 37.89585937 -44.0546875 37.23046875 C-49.2022719 31.32831877 -49.53866002 25.9731271 -49.33984375 18.41015625 C-48.67326996 11.72143307 -46.15934844 7.85033503 -41.375 3.25 C-30.09404453 -5.76239039 -12.61440879 -7.7892251 0 0 Z " fill="#FEE300" transform="translate(188,180)"/>
<path d="M0 0 C0.95438965 -0.00637985 1.9087793 -0.0127597 2.89208984 -0.01933289 C3.92543457 -0.02044571 4.9587793 -0.02155853 6.0234375 -0.02270508 C7.08127441 -0.02603348 8.13911133 -0.02936188 9.22900391 -0.03279114 C11.46842005 -0.03785989 13.70784375 -0.04019948 15.94726562 -0.04003906 C19.38424016 -0.04222729 22.82089474 -0.06038849 26.2578125 -0.0793457 C28.4296864 -0.08227921 30.60156183 -0.08426429 32.7734375 -0.08520508 C33.80678223 -0.09239059 34.84012695 -0.09957611 35.90478516 -0.10697937 C36.8591748 -0.10390274 37.81356445 -0.10082611 38.796875 -0.09765625 C40.06023682 -0.09979378 40.06023682 -0.09979378 41.34912109 -0.10197449 C43.3984375 0.14526367 43.3984375 0.14526367 45.3984375 2.14526367 C45.64453316 4.21859169 45.64453316 4.21859169 45.63894653 6.82754517 C45.64169586 7.81475052 45.64444519 8.80195587 45.64727783 9.81907654 C45.64008728 10.90592239 45.63289673 11.99276825 45.62548828 13.11254883 C45.62578033 14.25400864 45.62607239 15.39546844 45.62637329 16.57151794 C45.62497559 20.35919698 45.60939359 24.14668134 45.59375 27.93432617 C45.59002144 30.55463554 45.58717373 33.17494631 45.58517456 35.79525757 C45.57895251 41.99656061 45.56253195 48.19779333 45.54247558 54.39906538 C45.52013907 61.45821785 45.50912882 68.51737363 45.49908471 75.57655263 C45.47816631 90.09949262 45.4429763 104.62237716 45.3984375 119.14526367 C44.11223097 118.18495939 42.82661886 117.22385892 41.54125977 116.26242065 C40.82527115 115.72729292 40.10928253 115.19216518 39.37159729 114.64082146 C37.29467785 113.06661898 35.29715405 111.43164065 33.3359375 109.71557617 C32.35947266 108.86479492 32.35947266 108.86479492 31.36328125 107.99682617 C30.39068359 107.14217773 30.39068359 107.14217773 29.3984375 106.27026367 C28.71910156 105.67729492 28.03976562 105.08432617 27.33984375 104.47338867 C25.690544 103.03315509 24.04417336 101.58956832 22.3984375 100.14526367 C18.27405062 102.04391437 15.33018738 104.84162586 12.0859375 107.95776367 C10.98952021 109.0099601 9.88925366 110.0581603 8.78515625 111.10229492 C8.30264404 111.56611572 7.82013184 112.02993652 7.32299805 112.5078125 C4.49932228 114.91024728 1.41527549 116.9903794 -1.6015625 119.14526367 C-1.6015625 82.84526367 -1.6015625 46.54526367 -1.6015625 9.14526367 C-4.5715625 9.14526367 -7.5415625 9.14526367 -10.6015625 9.14526367 C-10.10390204 5.46257628 -9.53870291 3.494976 -6.6015625 1.14526367 C-4.19867823 -0.05617846 -2.68316498 0.01214341 0 0 Z M4.3984375 14.14526367 C1.76782652 16.77587465 2.16226703 18.65254341 2.14959717 22.23254395 C2.15678772 23.08562134 2.16397827 23.93869873 2.17138672 24.81762695 C2.17109467 25.7152475 2.17080261 26.61286804 2.17050171 27.53768921 C2.17189847 30.51374883 2.18747594 33.48956013 2.203125 36.46557617 C2.2068539 38.52537906 2.20970145 40.58518372 2.21170044 42.64498901 C2.2193466 48.07347488 2.23900351 53.50185417 2.2611084 58.93029785 C2.2815457 64.46678221 2.29069762 70.00328374 2.30078125 75.53979492 C2.32224848 86.4083314 2.35639624 97.27678868 2.3984375 108.14526367 C5.71072375 106.87441937 8.14906241 105.77598345 10.73046875 103.32495117 C11.30087891 102.78999023 11.87128906 102.2550293 12.45898438 101.70385742 C13.32620117 100.87047852 13.32620117 100.87047852 14.2109375 100.02026367 C15.1071582 99.1752832 15.1071582 99.1752832 16.02148438 98.31323242 C17.48649344 96.93026387 18.94330062 95.53861583 20.3984375 94.14526367 C23.99189681 95.68887437 26.48031954 97.87144701 29.3359375 100.52026367 C34.67915457 106.32420217 34.67915457 106.32420217 41.3984375 109.14526367 C41.3984375 77.79526367 41.3984375 46.44526367 41.3984375 14.14526367 C29.1884375 14.14526367 16.9784375 14.14526367 4.3984375 14.14526367 Z " fill="#8DA1BB" transform="translate(382.6015625,32.854736328125)"/>
<path d="M0 0 C4.58312084 -0.11605098 9.16586449 -0.18720362 13.75 -0.25 C15.05195313 -0.28351562 16.35390625 -0.31703125 17.6953125 -0.3515625 C18.94570313 -0.36445312 20.19609375 -0.37734375 21.484375 -0.390625 C22.63647461 -0.41157227 23.78857422 -0.43251953 24.97558594 -0.45410156 C28.63590108 0.09547756 29.77239856 1.10522007 32 4 C32.57421875 6.25390625 32.57421875 6.25390625 32.6875 8.5625 C32.8531255 11.36866924 33.09682759 13.29048278 34 16 C34.99 16.33 35.98 16.66 37 17 C38.65055685 23.60222739 38.70650737 29.73229871 36 36 C35.49210937 36.56847656 34.98421875 37.13695312 34.4609375 37.72265625 C32.43434422 40.88175754 32.5570515 43.46597759 32.4375 47.1875 C32.36021005 49.46169824 32.23135043 51.73627997 32 54 C31.01 54.495 31.01 54.495 30 55 C29.34 56.32 28.68 57.64 28 59 C28 55.37 28 51.74 28 48 C26.02 48.495 26.02 48.495 24 49 C18.09041779 49.35457493 12.7281123 48.29084221 7 47 C7 45.68 7 44.36 7 43 C6.01 43 5.02 43 4 43 C3.67 41.68 3.34 40.36 3 39 C1.35 39 -0.3 39 -2 39 C-2.33 37.68 -2.66 36.36 -3 35 C-4.32 34.67 -5.64 34.34 -7 34 C-7 32.68 -7 31.36 -7 30 C-6.34 30 -5.68 30 -5 30 C-5.20625 28.700625 -5.4125 27.40125 -5.625 26.0625 C-6.52940445 17.70003569 -3.95403953 11.24907248 0 4 C-0.66 4 -1.32 4 -2 4 C-1.34 2.68 -0.68 1.36 0 0 Z " fill="#FBF344" transform="translate(464,42)"/>
<path d="M0 0 C1.08945419 -0.00524185 2.17890839 -0.0104837 3.30137634 -0.0158844 C5.59845123 -0.02229256 7.89555898 -0.02098328 10.19262695 -0.01245117 C13.70648459 -0.00392653 17.21872406 -0.03274504 20.73242188 -0.06445312 C22.96744743 -0.06606491 25.20247586 -0.06548804 27.4375 -0.0625 C28.48656021 -0.07373398 29.53562042 -0.08496796 30.61647034 -0.09654236 C31.59776413 -0.08716141 32.57905792 -0.07778046 33.59008789 -0.06811523 C34.8786544 -0.06786598 34.8786544 -0.06786598 36.19325256 -0.06761169 C39.89547099 0.68696465 41.23429886 1.45730189 43.65234375 4.43359375 C44.39580987 8.49579626 44.28257914 12.51921795 44.2199707 16.63769531 C44.22070084 17.88673645 44.22143097 19.13577759 44.22218323 20.42266846 C44.21929697 23.84440228 44.1942296 27.26462671 44.15931344 30.68609333 C44.1280507 34.26283125 44.1251193 37.83958941 44.1191864 41.41644287 C44.10364757 48.18803645 44.06261906 54.95922627 44.01243895 61.73064208 C43.95654631 69.44032548 43.92905927 77.15002819 43.90396178 84.85986376 C43.85170285 100.71800756 43.76376037 116.57574859 43.65234375 132.43359375 C42.39444336 131.49888012 41.1377679 130.56251792 39.8815918 129.62548828 C39.18164597 129.1042337 38.48170013 128.58297913 37.76054382 128.04592896 C34.5521225 125.59215299 31.50847174 122.96201303 28.46484375 120.30859375 C24.58309644 116.9401704 20.69210321 113.61366805 16.65234375 110.43359375 C12.97278084 111.99591396 10.48718582 114.26943457 7.58984375 116.99609375 C2.8043572 121.43377912 -2.11524225 125.56369029 -7.23046875 129.62109375 C-9.42302758 131.26048861 -9.42302758 131.26048861 -10.34765625 133.43359375 C-11.00765625 133.43359375 -11.66765625 133.43359375 -12.34765625 133.43359375 C-12.47991214 122.29576572 -12.61040546 111.15791844 -12.73880768 100.02004528 C-12.79851821 94.84514054 -12.85877729 89.67024355 -12.92041016 84.49536133 C-13.18626939 62.140914 -13.4492791 39.79003406 -13.34765625 17.43359375 C-15.98765625 17.43359375 -18.62765625 17.43359375 -21.34765625 17.43359375 C-21.75493984 12.44436974 -21.14933981 9.29308335 -18.80859375 5.01171875 C-13.68257617 -0.52547671 -6.95855774 -0.01951013 0 0 Z M-14.34765625 6.43359375 C-16.71745638 9.38736873 -16.71745638 9.38736873 -16.34765625 13.43359375 C-13.37765625 13.43359375 -10.40765625 13.43359375 -7.34765625 13.43359375 C-7.34765625 49.73359375 -7.34765625 86.03359375 -7.34765625 123.43359375 C-1.19316899 118.904566 -1.19316899 118.904566 4.49609375 114.00390625 C5.40488281 113.153125 5.40488281 113.153125 6.33203125 112.28515625 C6.93273437 111.71539062 7.5334375 111.145625 8.15234375 110.55859375 C9.09980469 109.66914063 9.09980469 109.66914063 10.06640625 108.76171875 C11.59840353 107.32256979 13.12586916 105.87859919 14.65234375 104.43359375 C17.39967821 105.70793055 19.59235266 107.07471806 21.859375 109.078125 C22.44654297 109.59052734 23.03371094 110.10292969 23.63867188 110.63085938 C24.24130859 111.16388672 24.84394531 111.69691406 25.46484375 112.24609375 C26.65627391 113.2972028 27.85028041 114.34539897 29.046875 115.390625 C29.57128174 115.8544458 30.09568848 116.3182666 30.63598633 116.79614258 C32.47433786 118.28903805 34.34870731 119.66465557 36.27836609 121.03593445 C36.90985911 121.48522151 37.54135214 121.93450857 38.19198132 122.39741039 C38.91486072 122.91032115 38.91486072 122.91032115 39.65234375 123.43359375 C39.69902152 108.21324688 39.73431184 92.99290331 39.75596809 77.77250099 C39.76628981 70.70573156 39.78036716 63.63900655 39.80322266 56.57226562 C39.82525202 49.75772046 39.83689905 42.94322156 39.84209824 36.12864304 C39.84580534 33.52341356 39.85304392 30.91818673 39.86380386 28.31297684 C39.87823506 24.67555439 39.88032521 21.03832518 39.87939453 17.40087891 C39.88658508 16.31403305 39.89377563 15.22718719 39.90118408 14.10740662 C39.89843475 13.12020126 39.89568542 12.13299591 39.89285278 11.11587524 C39.89561816 9.82444327 39.89561816 9.82444327 39.89843941 8.50692177 C39.84283926 6.21153457 39.84283926 6.21153457 37.65234375 4.43359375 C35.53934441 4.12799811 35.53934441 4.12799811 33.08251953 4.17480469 C32.13458527 4.16850037 31.186651 4.16219604 30.20999146 4.15570068 C28.66938553 4.16177338 28.66938553 4.16177338 27.09765625 4.16796875 C26.04456268 4.1660553 24.99146912 4.16414185 23.90646362 4.16217041 C21.67543296 4.16080749 19.4443944 4.16451132 17.21337891 4.17285156 C13.79832083 4.18352817 10.38379139 4.17297066 6.96875 4.16015625 C4.80338425 4.16147824 2.63801884 4.16404146 0.47265625 4.16796875 C-1.06187698 4.16189606 -1.06187698 4.16189606 -2.62741089 4.15570068 C-4.05876877 4.16515717 -4.05876877 4.16515717 -5.51904297 4.17480469 C-6.77574295 4.17719147 -6.77574295 4.17719147 -8.05783081 4.17962646 C-10.6198238 4.46378018 -12.18314877 5.04300195 -14.34765625 6.43359375 Z " fill="#3D4D7B" transform="translate(388.34765625,28.56640625)"/>
<path d="M0 0 C0.33 0.66 0.66 1.32 1 2 C0.175 2.45375 -0.65 2.9075 -1.5 3.375 C-2.325 3.91125 -3.15 4.4475 -4 5 C-4 5.66 -4 6.32 -4 7 C-21.33972312 7.66190212 -38.64444099 8.16237009 -56 8 C-55.99476318 8.78947021 -55.98952637 9.57894043 -55.98413086 10.39233398 C-55.69485945 60.69260451 -55.69485945 60.69260451 -61.4765625 67.8203125 C-63 69 -63 69 -65 69 C-67.83680518 67.58159741 -68.62592304 65.81358615 -70 63 C-74.83147028 46.48111291 -72 23.86675713 -72 8 C-95.43 8 -118.86 8 -143 8 C-143 7.01 -143 6.02 -143 5 C-143.66 4.67 -144.32 4.34 -145 4 C-145 3.34 -145 2.68 -145 2 C-145.66 1.67 -146.32 1.34 -147 1 C-98.49 0.67 -49.98 0.34 0 0 Z " fill="#D60000" transform="translate(492,222)"/>
<path d="M0 0 C10.56 0 21.12 0 32 0 C31.34 1.32 30.68 2.64 30 4 C22.41 4 14.82 4 7 4 C7 13.9 7 23.8 7 34 C11.62 34 16.24 34 21 34 C21.33 35.65 21.66 37.3 22 39 C17.05 39 12.1 39 7 39 C7 40.32 7 41.64 7 43 C13.6 43 20.2 43 27 43 C27.33 44.32 27.66 45.64 28 47 C20.74 47 13.48 47 6 47 C6 54.26 6 61.52 6 69 C16.89 69 27.78 69 39 69 C39 70.32 39 71.64 39 73 C28.11 73 17.22 73 6 73 C6 74.32 6 75.64 6 77 C16.89 77 27.78 77 39 77 C39 78.65 39 80.3 39 82 C28.11 82 17.22 82 6 82 C6 83.32 6 84.64 6 86 C16.89 86 27.78 86 39 86 C39 87.32 39 88.64 39 90 C28.11 90 17.22 90 6 90 C6 97.26 6 104.52 6 112 C16.89 112 27.78 112 39 112 C39 113.32 39 114.64 39 116 C26.46 116 13.92 116 1 116 C0.67 117.32 0.34 118.64 0 120 C0 80.4 0 40.8 0 0 Z " fill="#757C8F" transform="translate(432,42)"/>
<path d="M0 0 C8.25 0 16.5 0 25 0 C23 7 23 7 21.9375 9.875 C20.34637925 15.17873585 20 20.48094008 20 26 C19.34 26 18.68 26 18 26 C18 27.32 18 28.64 18 30 C19.65 30.33 21.3 30.66 23 31 C23 32.32 23 33.64 23 35 C24.65 35 26.3 35 28 35 C28.33 36.32 28.66 37.64 29 39 C29.99 39 30.98 39 32 39 C32 40.32 32 41.64 32 43 C34.74991832 43.16811728 37.49992112 43.3345481 40.25 43.5 C41.02730469 43.54769531 41.80460937 43.59539062 42.60546875 43.64453125 C43.35957031 43.68964844 44.11367188 43.73476562 44.890625 43.78125 C45.92751465 43.8440918 45.92751465 43.8440918 46.98535156 43.90820312 C48.98838965 43.99947098 50.9948837 44 53 44 C53 47.3 53 50.6 53 54 C49.73650497 54.81587376 47.35980602 55.16209703 44.0625 55.1875 C43.22847656 55.20167969 42.39445312 55.21585938 41.53515625 55.23046875 C39 55 39 55 36.85058594 54.01147461 C33.18472179 52.71071449 29.69956301 52.645961 25.85546875 52.5859375 C25.08568192 52.56657135 24.31589508 52.5472052 23.52278137 52.5272522 C21.07779829 52.46774377 18.63276738 52.42118705 16.1875 52.375 C14.52406866 52.33679369 12.86065653 52.29774043 11.19726562 52.2578125 C7.13166759 52.16206617 3.06597699 52.07792991 -1 52 C-1 49.03 -1 46.06 -1 43 C6.26 43 13.52 43 21 43 C20.67 42.01 20.34 41.02 20 40 C13.4 39.67 6.8 39.34 0 39 C0 37.68 0 36.36 0 35 C4.95 35 9.9 35 15 35 C14.67 33.35 14.34 31.7 14 30 C9.38 30 4.76 30 0 30 C0 20.1 0 10.2 0 0 Z " fill="#F4EE75" transform="translate(439,46)"/>
<path d="M0 0 C19.8 0 39.6 0 60 0 C60 0.33 60 0.66 60 1 C58.71029297 1.03867187 58.71029297 1.03867187 57.39453125 1.078125 C41.11942354 1.8590462 26.07070298 6.66501814 14.7421875 18.91015625 C9.0690784 25.71534318 5.60159075 32.5281532 3 41 C2.82214952 41.57119859 2.64429904 42.14239718 2.46105915 42.73090482 C1.84205548 45.77732141 1.86809443 48.67656182 1.8613348 51.78599167 C1.85849258 52.47102164 1.85565036 53.15605161 1.85272202 53.86184007 C1.84436901 56.16805763 1.84310633 58.474225 1.84178162 60.78045654 C1.83721668 62.44620452 1.83221676 64.11195136 1.82681805 65.77769685 C1.81321977 70.36349119 1.80581369 74.9492781 1.79939139 79.53508735 C1.79139487 84.4771307 1.77769452 89.41915857 1.76467896 94.3611908 C1.74290558 102.92641465 1.72476424 111.49164006 1.70907402 120.05687714 C1.68638324 132.44084692 1.65823931 144.82479956 1.62875474 157.20875481 C1.58106913 177.29980684 1.53780756 197.39086587 1.49731445 217.48193359 C1.45796446 237.00114487 1.41653943 256.52034992 1.37231445 276.03955078 C1.36959018 277.24225911 1.36686591 278.44496743 1.36405908 279.68412146 C1.35037969 285.71761972 1.3366594 291.75111788 1.32291877 297.78461599 C1.20893876 347.85639768 1.10213277 397.92819285 1 448 C0.67 448 0.34 448 0 448 C0 300.16 0 152.32 0 0 Z " fill="#000000" transform="translate(0,0)"/>
<path d="M0 0 C4.62 0 9.24 0 14 0 C16.362259 49.3893844 16.362259 49.3893844 9.5234375 57.8203125 C8 59 8 59 6 59 C3.16319482 57.58159741 2.37407696 55.81358615 1 53 C-0.25303162 48.70888562 -0.40180444 44.44346899 -0.625 40 C-0.67003662 39.10385986 -0.71507324 38.20771973 -0.76147461 37.28442383 C-1.26679402 24.84894391 -0.58554521 12.42256681 0 0 Z " fill="#FE0000" transform="translate(421,232)"/>
<path d="M0 0 C1.02287109 -0.01160156 1.02287109 -0.01160156 2.06640625 -0.0234375 C7.99052668 -0.00086942 13.30308863 0.51484631 17.75 4.75 C18.53375 5.575 19.3175 6.4 20.125 7.25 C22.79033035 8.569018 22.79033035 8.569018 25.125 9.25 C25.125 7.27 25.125 5.29 25.125 3.25 C25.785 3.58 26.445 3.91 27.125 4.25 C27.19902368 9.90996416 27.25354173 15.56964811 27.28979492 21.22998047 C27.30490395 23.15646267 27.32539214 25.08291035 27.35131836 27.00927734 C27.38760925 29.77450057 27.40470479 32.53927004 27.41796875 35.3046875 C27.43345261 36.1693161 27.44893646 37.0339447 27.46488953 37.92477417 C27.46557617 40.35107422 27.46557617 40.35107422 27.125 44.25 C26.135 44.91 25.145 45.57 24.125 46.25 C23.733125 46.9925 23.34125 47.735 22.9375 48.5 C20.73993856 51.83423116 18.19824957 53.63591883 14.96484375 55.91796875 C13.01085205 57.25875771 13.01085205 57.25875771 11.125 59.25 C11.01646017 57.02191841 10.93916693 54.79230068 10.875 52.5625 C10.82859375 51.32113281 10.7821875 50.07976562 10.734375 48.80078125 C11.18820478 44.67546857 12.35057202 43.23784551 15.125 40.25 C16.86573522 34.88273306 16.91126621 27.60879862 15.125 22.25 C14.465 21.6725 13.805 21.095 13.125 20.5 C10.47649767 17.52043488 10.60748493 15.25668017 10.49609375 11.37109375 C10.02104042 8.65578892 9.28636412 7.9341951 7.125 6.25 C4.71436558 5.74669238 4.71436558 5.74669238 2.01953125 5.73828125 C1.03662109 5.70283203 0.05371094 5.66738281 -0.95898438 5.63085938 C-1.98314453 5.60830078 -3.00730469 5.58574219 -4.0625 5.5625 C-5.09826172 5.52833984 -6.13402344 5.49417969 -7.20117188 5.45898438 C-9.7590066 5.37647358 -12.31649723 5.30733428 -14.875 5.25 C-11.18410204 -0.28634693 -6.22478455 -0.06981067 0 0 Z " fill="#FE860A" transform="translate(484.875,36.75)"/>
<path d="M0 0 C0.66 0 1.32 0 2 0 C2 17.49 2 34.98 2 53 C-11.86 53 -25.72 53 -40 53 C-36.90335869 50.93557246 -33.81175409 49.50425025 -30.4375 47.9375 C-18.18006466 41.96324788 -8.79717671 32.51483339 -3.6875 19.75 C-1.54096094 13.32880804 -0.74412689 6.70693317 0 0 Z " fill="#000000" transform="translate(510,459)"/>
<path d="M0 0 C15.18 0 30.36 0 46 0 C46 13.53 46 27.06 46 41 C42.59648297 38.73098864 42.19619219 37.62368607 40.6875 33.9375 C34.3388893 19.43992631 25.12858889 10.80378901 11 4 C7.37048458 2.73093866 3.77194315 1.73899294 0 1 C0 0.67 0 0.34 0 0 Z " fill="#000000" transform="translate(466,0)"/>
<path d="M0 0 C1.16039297 2.32078594 2.2908552 4.65802809 3.33984375 7.03125 C10.05571084 21.61239909 19.27838085 31.37028664 34 38 C37.63220267 39.25468359 41.22976041 40.26134081 45 41 C45 41.33 45 41.66 45 42 C30.15 42 15.3 42 0 42 C0 28.14 0 14.28 0 0 Z " fill="#000000" transform="translate(0,470)"/>
<path d="M0 0 C3.96 0 7.92 0 12 0 C12 1.32 12 2.64 12 4 C14.74991832 4.16811728 17.49992112 4.3345481 20.25 4.5 C21.41595703 4.57154297 21.41595703 4.57154297 22.60546875 4.64453125 C23.35957031 4.68964844 24.11367188 4.73476562 24.890625 4.78125 C25.92751465 4.8440918 25.92751465 4.8440918 26.98535156 4.90820312 C28.98838965 4.99947098 30.9948837 5 33 5 C33 8.3 33 11.6 33 15 C29.73650497 15.81587376 27.35980602 16.16209703 24.0625 16.1875 C23.22847656 16.20167969 22.39445312 16.21585938 21.53515625 16.23046875 C19 16 19 16 16.85058594 15.01147461 C13.18472179 13.71071449 9.69956301 13.645961 5.85546875 13.5859375 C5.08568192 13.56657135 4.31589508 13.5472052 3.52278137 13.5272522 C1.07779829 13.46774377 -1.36723262 13.42118705 -3.8125 13.375 C-5.47593134 13.33679369 -7.13934347 13.29774043 -8.80273438 13.2578125 C-12.86833241 13.16206617 -16.93402301 13.07792991 -21 13 C-21 10.03 -21 7.06 -21 4 C-13.74 4 -6.48 4 1 4 C0.67 2.68 0.34 1.36 0 0 Z " fill="#F4EF81" transform="translate(459,85)"/>
<path d="M0 0 C3.51960933 2.99818573 4.50195178 6.70738821 4.9765625 11.1328125 C5.14095045 16.61739223 4.88256674 20.76778708 1.6875 25.4375 C-1.99091812 27.27670906 -6.2883215 26.8119898 -10.3125 26.4375 C-13.25 25 -13.25 25 -15.3125 23.4375 C-16.3025 23.1075 -17.2925 22.7775 -18.3125 22.4375 C-20.46344904 17.32350891 -20.84195481 11.73961001 -19.3125 6.4375 C-13.84269609 -0.21496422 -8.30584228 -2.02034001 0 0 Z " fill="#FDF77D" transform="translate(490.3125,54.5625)"/>
<path d="M0 0 C4.91252562 1.49113906 7.83725912 4.33016174 11.4375 7.8125 C12.53900367 8.86210715 13.6418603 9.91029634 14.74609375 10.95703125 C15.28089355 11.46572754 15.81569336 11.97442383 16.36669922 12.49853516 C18.00318074 14.002924 19.68835629 15.41878122 21.41015625 16.82421875 C22.26480469 17.54222656 23.11945313 18.26023438 24 19 C24 19.33 24 19.66 24 20 C22.72882324 20.01981934 21.45764648 20.03963867 20.14794922 20.06005859 C15.41777217 20.13630886 10.68789495 20.22499629 5.95800781 20.31738281 C3.91347181 20.35559239 1.86887043 20.3904591 -0.17578125 20.421875 C-3.12002886 20.46769987 -6.06382948 20.5256656 -9.0078125 20.5859375 C-9.9174173 20.59748871 -10.82702209 20.60903992 -11.76419067 20.62094116 C-16.55423939 20.73155536 -20.49985074 21.15461505 -25 23 C-21.29874162 19.25058398 -17.50114485 15.63034741 -13.625 12.0625 C-13.05499268 11.53688477 -12.48498535 11.01126953 -11.89770508 10.46972656 C-8.00351159 6.89112859 -4.05572956 3.39549452 0 0 Z " fill="#CCCDCE" transform="translate(403,138)"/>
<path d="M0 0 C28.71 0 57.42 0 87 0 C87 1.65 87 3.3 87 5 C58.29 5 29.58 5 0 5 C0 3.35 0 1.7 0 0 Z " fill="#C6C6C6" transform="translate(384,171)"/>
<path d="M0 0 C0.33 0.66 0.66 1.32 1 2 C-3.16350793 3.56361401 -6.59604254 4.24848107 -11.03646851 4.24050903 C-12.22269806 4.24325836 -13.40892761 4.24600769 -14.63110352 4.24884033 C-15.91863525 4.24164978 -17.20616699 4.23445923 -18.53271484 4.22705078 C-19.91289258 4.22648616 -21.29307091 4.22680422 -22.67324829 4.22793579 C-26.40836407 4.22850833 -30.14335073 4.21677008 -33.87843657 4.20278788 C-37.78618937 4.19026401 -41.69394531 4.18910871 -45.60171509 4.18673706 C-52.99639771 4.18052715 -60.39102102 4.16412297 -67.78567755 4.14403808 C-76.20644619 4.12166384 -84.6272177 4.11068182 -93.04800868 4.10064721 C-110.3653734 4.0797563 -127.68268042 4.04458985 -145 4 C-145 3.34 -145 2.68 -145 2 C-145.66 1.67 -146.32 1.34 -147 1 C-98.49 0.67 -49.98 0.34 0 0 Z " fill="#BB0303" transform="translate(492,222)"/>
<path d="M0 0 C4.89297012 -0.04955872 9.78579305 -0.0857946 14.67895508 -0.10986328 C16.34239244 -0.11990057 18.00581225 -0.13353331 19.66918945 -0.15087891 C22.06466005 -0.17522749 24.45989668 -0.18650588 26.85546875 -0.1953125 C27.96513252 -0.21079636 27.96513252 -0.21079636 29.09721375 -0.22659302 C33.23064653 -0.22748458 36.24911579 0.30498436 40 2 C43.58430945 2.24082874 43.58430945 2.24082874 47.3125 2.125 C48.56675781 2.10695313 49.82101562 2.08890625 51.11328125 2.0703125 C52.06589844 2.04710938 53.01851563 2.02390625 54 2 C54 3.32 54 4.64 54 6 C52.68 6 51.36 6 50 6 C49.67 6.66 49.34 7.32 49 8 C41.575 7.01 41.575 7.01 34 6 C33.67 6.99 33.34 7.98 33 9 C22.11 9 11.22 9 0 9 C0 6.03 0 3.06 0 0 Z " fill="#EBEBEA" transform="translate(438,98)"/>
<path d="M0 0 C28.38 0 56.76 0 86 0 C86 1.32 86 2.64 86 4 C57.62 4 29.24 4 0 4 C0 2.68 0 1.36 0 0 Z " fill="#C1C1C1" transform="translate(385,180)"/>
<path d="M0 0 C28.38 0 56.76 0 86 0 C86 1.32 86 2.64 86 4 C57.62 4 29.24 4 0 4 C0 2.68 0 1.36 0 0 Z " fill="#C2C2C2" transform="translate(385,163)"/>
<path d="M0 0 C4.58312084 -0.11605098 9.16586449 -0.18720362 13.75 -0.25 C15.05195313 -0.28351562 16.35390625 -0.31703125 17.6953125 -0.3515625 C18.94570313 -0.36445312 20.19609375 -0.37734375 21.484375 -0.390625 C22.63647461 -0.41157227 23.78857422 -0.43251953 24.97558594 -0.45410156 C28.63590108 0.09547756 29.77239856 1.10522007 32 4 C32.57421875 6.25390625 32.57421875 6.25390625 32.6875 8.5625 C32.8531255 11.36866924 33.09682759 13.29048278 34 16 C34.99 16.33 35.98 16.66 37 17 C38.65055685 23.60222739 38.70650737 29.73229871 36 36 C35.49210937 36.56847656 34.98421875 37.13695312 34.4609375 37.72265625 C32.43434422 40.88175754 32.5570515 43.46597759 32.4375 47.1875 C32.36021005 49.46169824 32.23135043 51.73627997 32 54 C31.01 54.495 31.01 54.495 30 55 C28.86649466 57.01669827 28.86649466 57.01669827 28 59 C27.91892354 56.24940619 27.85947187 53.50120979 27.8125 50.75 C27.78736328 49.97269531 27.76222656 49.19539063 27.73632812 48.39453125 C27.67811844 43.85417563 27.83654496 41.47980054 31 38 C33.77692624 30.0998676 33.355873 22.135238 32 14 C31.01 13.67 30.02 13.34 29 13 C28.34 10.36 27.68 7.72 27 5 C17.43 4.67 7.86 4.34 -2 4 C-1.34 2.68 -0.68 1.36 0 0 Z " fill="#FEDE3A" transform="translate(464,42)"/>
<path d="M0 0 C1.02287109 -0.01160156 1.02287109 -0.01160156 2.06640625 -0.0234375 C7.99052668 -0.00086942 13.30308863 0.51484631 17.75 4.75 C18.53375 5.575 19.3175 6.4 20.125 7.25 C22.79033035 8.569018 22.79033035 8.569018 25.125 9.25 C25.125 7.27 25.125 5.29 25.125 3.25 C25.785 3.58 26.445 3.91 27.125 4.25 C27.125 10.52 27.125 16.79 27.125 23.25 C23.125 20.25 23.125 20.25 22.125 17.25 C20.50847917 15.49671102 20.50847917 15.49671102 18.5 13.8125 C17.84773438 13.23628906 17.19546875 12.66007812 16.5234375 12.06640625 C9.38650974 6.66140396 4.56906663 5.62712717 -4.3125 5.5 C-5.33021484 5.47035156 -6.34792969 5.44070312 -7.39648438 5.41015625 C-9.88940028 5.33993327 -12.38140699 5.28700355 -14.875 5.25 C-11.18410204 -0.28634693 -6.22478455 -0.06981067 0 0 Z " fill="#FF5704" transform="translate(484.875,36.75)"/>
<path d="M0 0 C6.93 0 13.86 0 21 0 C19.02 0.99 19.02 0.99 17 2 C16.01 3.485 16.01 3.485 15 5 C14.34 5 13.68 5 13 5 C11.19003784 10.65755469 9.64270983 16.0870696 9 22 C6.03 22 3.06 22 0 22 C0 14.74 0 7.48 0 0 Z " fill="#E2E2E2" transform="translate(439,46)"/>
<path d="M0 0 C0.66 0.33 1.32 0.66 2 1 C3.22329074 4.66987221 2.88021006 7.33967822 2.5625 11.1875 C2.46066406 12.45980469 2.35882813 13.73210937 2.25390625 15.04296875 C2.17011719 16.01878906 2.08632813 16.99460937 2 18 C0.06372231 18.10807131 -1.87427756 18.1856225 -3.8125 18.25 C-5.43091797 18.31960937 -5.43091797 18.31960937 -7.08203125 18.390625 C-10 18 -10 18 -11.859375 16.296875 C-13.85429679 12.27970372 -13.62439189 8.37074322 -13 4 C-10.16803517 -1.17141404 -5.29587872 -0.62364595 0 0 Z " fill="#FDF99E" transform="translate(490,60)"/>
<path d="M0 0 C1.65 0 3.3 0 5 0 C5 6.93 5 13.86 5 21 C15.89 21 26.78 21 38 21 C38 22.32 38 23.64 38 25 C25.46 25 12.92 25 0 25 C0 16.75 0 8.5 0 0 Z " fill="#C3C3C3" transform="translate(433,133)"/>
<path d="M0 0 C19.8 0 39.6 0 60 0 C60 1.32 60 2.64 60 4 C40.2 4 20.4 4 0 4 C0 2.68 0 1.36 0 0 Z " fill="#C4C4C4" transform="translate(385,189)"/>
<path d="M0 0 C4.29 0 8.58 0 13 0 C11.35 1.32 9.7 2.64 8 4 C0.52683346 11.82075568 0.59188005 19.64209911 0 30 C-2.31 30 -4.62 30 -7 30 C-7 28.68 -7 27.36 -7 26 C-6.34 26 -5.68 26 -5 26 C-5.20625 24.700625 -5.4125 23.40125 -5.625 22.0625 C-6.52940445 13.70003569 -3.95403953 7.24907248 0 0 Z " fill="#F3EC58" transform="translate(464,46)"/>
<path d="M0 0 C1.98 0 3.96 0 6 0 C6 1.32 6 2.64 6 4 C10.62 4 15.24 4 20 4 C20.33 5.65 20.66 7.3 21 9 C16.05 9 11.1 9 6 9 C6 10.32 6 11.64 6 13 C12.6 13 19.2 13 26 13 C26.33 14.32 26.66 15.64 27 17 C19.74 17 12.48 17 5 17 C5 15.68 5 14.36 5 13 C3.35 13 1.7 13 0 13 C0 11.68 0 10.36 0 9 C1.65 9 3.3 9 5 9 C5 7.35 5 5.7 5 4 C3.35 4 1.7 4 0 4 C0 2.68 0 1.36 0 0 Z " fill="#BCBCBB" transform="translate(433,72)"/>
<path d="M0 0 C-1.90676514 0.029729 -1.90676514 0.029729 -3.85205078 0.06005859 C-8.58222783 0.13630886 -13.31210505 0.22499629 -18.04199219 0.31738281 C-20.08652819 0.35559239 -22.13112957 0.3904591 -24.17578125 0.421875 C-27.12002886 0.46769987 -30.06382948 0.5256656 -33.0078125 0.5859375 C-33.9174173 0.59748871 -34.82702209 0.60903992 -35.76419067 0.62094116 C-40.55423939 0.73155536 -44.49985074 1.15461505 -49 3 C-43.60782759 -2.39217241 -41.53693907 -4.32384193 -33.88671875 -4.58984375 C-33.08015335 -4.62106827 -32.27358795 -4.65229279 -31.44258118 -4.6844635 C-29.73379752 -4.74595994 -28.02480689 -4.80191519 -26.31567383 -4.8527832 C-23.70681199 -4.9368775 -21.10141612 -5.05858847 -18.49414062 -5.18164062 C-16.83340906 -5.23670816 -15.17260071 -5.28951587 -13.51171875 -5.33984375 C-12.3458448 -5.4019529 -12.3458448 -5.4019529 -11.15641785 -5.46531677 C-5.64364036 -5.5700465 -3.39996751 -4.282331 0 0 Z " fill="#BFBFC0" transform="translate(427,158)"/>
<path d="M0 0 C-0.93592263 3.34258081 -1.85890716 6.61821938 -3.0625 9.875 C-4.65362075 15.17873585 -5 20.48094008 -5 26 C-7.97 26 -10.94 26 -14 26 C-14 24.68 -14 23.36 -14 22 C-13.34 22 -12.68 22 -12 22 C-12.04640625 21.43152344 -12.0928125 20.86304687 -12.140625 20.27734375 C-12.42349971 14.2258455 -11.40589234 11.00240438 -8 6 C-8.66 5.34 -9.32 4.68 -10 4 C-8 1 -8 1 -6.125 0.3125 C-4 0 -4 0 0 0 Z " fill="#EEE98B" transform="translate(464,46)"/>
<path d="M0 0 C4.7769834 2.32024908 7.35254203 5.51968651 10 10 C12.02929235 16.08787705 11.42351711 22.09267705 9 28 C8.34 28 7.68 28 7 28 C6.773125 28.7425 6.54625 29.485 6.3125 30.25 C4.75592468 33.51139591 2.91481146 34.92894975 0 37 C-0.3529412 33.20588212 -0.4065339 31.53767386 1.9375 28.4375 C2.618125 27.633125 3.29875 26.82875 4 26 C5.74073522 20.63273306 5.78626621 13.35879862 4 8 C3.319375 7.319375 2.63875 6.63875 1.9375 5.9375 C1.298125 5.298125 0.65875 4.65875 0 4 C0 2.68 0 1.36 0 0 Z " fill="#FEBF15" transform="translate(496,51)"/>
<path d="M0 0 C10.89 0 21.78 0 33 0 C33 1.65 33 3.3 33 5 C22.11 5 11.22 5 0 5 C0 3.35 0 1.7 0 0 Z " fill="#C3C3C3" transform="translate(438,119)"/>
<path d="M0 0 C10.89 0 21.78 0 33 0 C33 1.65 33 3.3 33 5 C22.11 5 11.22 5 0 5 C0 3.35 0 1.7 0 0 Z " fill="#C4C4C4" transform="translate(438,102)"/>
<path d="M0 0 C0.66 -0.33 1.32 -0.66 2 -1 C2.99 -0.67 3.98 -0.34 5 0 C5.495 3.96 5.495 3.96 6 8 C-1.98211624 4.77645306 -1.98211624 4.77645306 -5 2 C-5 1.34 -5 0.68 -5 0 C-10.03419895 -0.8138731 -14.95849072 -1.21114931 -20.0625 -1.25 C-20.74376953 -1.270625 -21.42503906 -1.29125 -22.12695312 -1.3125 C-26.87683498 -1.34900245 -29.90638102 -0.32984719 -34 2 C-36.875 2.6875 -36.875 2.6875 -39 3 C-39 2.34 -39 1.68 -39 1 C-37.60922699 0.17886823 -36.21211107 -0.63152495 -34.8125 -1.4375 C-34.03519531 -1.88996094 -33.25789063 -2.34242187 -32.45703125 -2.80859375 C-22.12286785 -7.81959508 -9.43910773 -5.66346464 0 0 Z " fill="#FE3401" transform="translate(505,39)"/>
<path d="M0 0 C-0.33 0.99 -0.66 1.98 -1 3 C-2.66015625 1.99088542 -4.3203125 0.98177083 -5.98046875 -0.02734375 C-13.24041099 -3.52391167 -23.50592675 -3.11464178 -31 -0.625 C-32.34144257 -0.10373963 -33.67606726 0.43574592 -35 1 C-36.010625 1.391875 -37.02125 1.78375 -38.0625 2.1875 C-38.701875 2.455625 -39.34125 2.72375 -40 3 C-40 3.66 -40 4.32 -40 5 C-41.98 5 -43.96 5 -46 5 C-44.47723422 0.43170265 -41.16257436 -0.87399095 -37 -3 C-24.83046388 -8.1572741 -11.12007815 -7.41338543 0 0 Z " fill="#FE1100" transform="translate(506,37)"/>
<path d="M0 0 C12.54 0 25.08 0 38 0 C38 0.33 38 0.66 38 1 C26.78 1 15.56 1 4 1 C4 1.99 4 2.98 4 4 C15.22 4 26.44 4 38 4 C38 4.33 38 4.66 38 5 C9.62 5 -18.76 5 -48 5 C-48 4.67 -48 4.34 -48 4 C-32.49 3.67 -16.98 3.34 -1 3 C-0.67 2.01 -0.34 1.02 0 0 Z " fill="#E3E3E3" transform="translate(433,158)"/>
<path d="M0 0 C10.89 0 21.78 0 33 0 C33 1.32 33 2.64 33 4 C22.11 4 11.22 4 0 4 C0 2.68 0 1.36 0 0 Z " fill="#C1C1C1" transform="translate(438,128)"/>
<path d="M0 0 C10.89 0 21.78 0 33 0 C33 1.32 33 2.64 33 4 C22.11 4 11.22 4 0 4 C0 2.68 0 1.36 0 0 Z " fill="#BEBEBE" transform="translate(438,111)"/>
<path d="M0 0 C10.89 0 21.78 0 33 0 C33 1.32 33 2.64 33 4 C22.11 4 11.22 4 0 4 C0 2.68 0 1.36 0 0 Z " fill="#BFBFBB" transform="translate(438,94)"/>
<path d="M0 0 C1.98 0 3.96 0 6 0 C6 7.26 6 14.52 6 22 C4.02 22 2.04 22 0 22 C0 14.74 0 7.48 0 0 Z " fill="#A3A3A3" transform="translate(433,46)"/>
<path d="M0 0 C4.10379698 -0.14489234 8.20693967 -0.23393542 12.3125 -0.3125 C13.47974609 -0.35439453 14.64699219 -0.39628906 15.84960938 -0.43945312 C16.96787109 -0.45556641 18.08613281 -0.47167969 19.23828125 -0.48828125 C20.7857605 -0.52755737 20.7857605 -0.52755737 22.36450195 -0.56762695 C23.23421631 -0.38031006 24.10393066 -0.19299316 25 0 C25.99 1.65 26.98 3.3 28 5 C18.76 5 9.52 5 0 5 C0 3.35 0 1.7 0 0 Z " fill="#E5E5E3" transform="translate(438,89)"/>
<path d="M0 0 C5.96902503 3.36992969 11.13857719 7.66963782 13.359375 14.33203125 C13.046875 16.70703125 13.046875 16.70703125 12.359375 18.33203125 C10.1115775 16.2796944 9.3571508 15.32535864 8.359375 12.33203125 C-0.2879678 3.24177577 -7.26487478 0.83413624 -19.38671875 0.41015625 C-20.46050781 0.384375 -21.53429687 0.35859375 -22.640625 0.33203125 C-19.23024925 -6.48872026 -5.37423649 -2.4218295 0 0 Z " fill="#FE6E06" transform="translate(498.640625,41.66796875)"/>
<path d="M0 0 C0.68565949 4.79961641 1.039441 7.51217268 -1.79296875 11.56640625 C-6.03686904 15.99513302 -8.73330453 18.41874129 -15 19 C-15.3046875 16.2578125 -15.3046875 16.2578125 -15 13 C-12.8828125 10.8046875 -12.8828125 10.8046875 -10.125 8.875 C-6.6931093 6.44041087 -4.70057744 4.84693732 -3 1 C-1 0 -1 0 0 0 Z " fill="#FF5C04" transform="translate(512,81)"/>
<path d="M0 0 C10.56 0 21.12 0 32 0 C31.34 1.32 30.68 2.64 30 4 C20.1 4 10.2 4 0 4 C0 2.68 0 1.36 0 0 Z " fill="#777676" transform="translate(432,42)"/>
<path d="M0 0 C1.65 0 3.3 0 5 0 C5 5.94 5 11.88 5 18 C3.35 18 1.7 18 0 18 C0 27.57 0 37.14 0 47 C-0.33 47 -0.66 47 -1 47 C-1.20638953 14.69210102 -1.20638953 14.69210102 0 0 Z " fill="#9599A3" transform="translate(433,115)"/>
<path d="M0 0 C0.33 0.99 0.66 1.98 1 3 C1.70125 3 2.4025 3 3.125 3 C7.56633477 4.5448121 9.59267444 8.0842869 12 12 C14.48010191 19.44030573 13.66620032 26.49162625 10.3125 33.5 C8.10999778 37.73426784 5.83359806 40.17589545 2 43 C1.34 43.66 0.68 44.32 0 45 C0.44671894 39.93718536 2.73569934 37.67233825 6 34 C6.33 33.34 6.66 32.68 7 32 C7.66 32 8.32 32 9 32 C10.54980775 24.44468722 11.27524853 17.7182477 7 11 C4.78258196 7.9510502 3.15213668 6.10142446 0 4 C0 2.68 0 1.36 0 0 Z " fill="#FEAB11" transform="translate(496,47)"/>
<path d="M0 0 C1.16595703 0.66128906 1.16595703 0.66128906 2.35546875 1.3359375 C3.54076172 2.00496094 3.54076172 2.00496094 4.75 2.6875 C5.34167969 3.02523437 5.93335938 3.36296875 6.54296875 3.7109375 C6.54296875 4.0409375 6.54296875 4.3709375 6.54296875 4.7109375 C-2.36703125 4.7109375 -11.27703125 4.7109375 -20.45703125 4.7109375 C-17.7888868 2.04279305 -15.85594262 0.62495307 -12.58203125 -1.1015625 C-11.73898437 -1.56175781 -10.8959375 -2.02195313 -10.02734375 -2.49609375 C-5.92613467 -3.76136038 -3.62607353 -1.90239152 0 0 Z " fill="#EFEFEF" transform="translate(413.45703125,149.2890625)"/>
<path d="M0 0 C1.65 0 3.3 0 5 0 C4.360625 1.134375 3.72125 2.26875 3.0625 3.4375 C0.80237891 7.90183812 0.22937207 12.04556318 0 17 C-0.66 17 -1.32 17 -2 17 C-2 18.32 -2 19.64 -2 21 C-5.63 21 -9.26 21 -13 21 C-13 19.68 -13 18.36 -13 17 C-10.03 17 -7.06 17 -4 17 C-4.061875 16.01 -4.12375 15.02 -4.1875 14 C-4.20830402 8.89261201 -2.25298394 4.50596788 0 0 Z " fill="#E6E4C6" transform="translate(452,51)"/>
<path d="M0 0 C1.216875 -0.04125 2.43375 -0.0825 3.6875 -0.125 C4.71423828 -0.15980469 4.71423828 -0.15980469 5.76171875 -0.1953125 C8 0 8 0 10.3125 1 C13.75943996 2.28258231 16.64647172 2.19352389 20.3125 2.125 C21.56675781 2.10695313 22.82101562 2.08890625 24.11328125 2.0703125 C25.06589844 2.04710938 26.01851563 2.02390625 27 2 C27 3.32 27 4.64 27 6 C25.68 6 24.36 6 23 6 C22.67 6.66 22.34 7.32 22 8 C16.72 7.34 11.44 6.68 6 6 C6 5.01 6 4.02 6 3 C3.03 2.505 3.03 2.505 0 2 C0 1.34 0 0.68 0 0 Z " fill="#EFEDCC" transform="translate(465,98)"/>
<path d="M0 0 C4.875 2.75 4.875 2.75 6 5 C6.308054 10.85302603 5.87931355 16.40846214 4 22 C0.82855312 25.17144688 -2.68758628 25.05990696 -7 25.125 C-10.10672345 25.08969632 -12.97410358 24.75647411 -16 24 C-16 23.34 -16 22.68 -16 22 C-16.66 22 -17.32 22 -18 22 C-18.33 21.01 -18.66 20.02 -19 19 C-13.125 20.875 -13.125 20.875 -12 22 C-9.98035801 22.07244053 -7.95832876 22.08377188 -5.9375 22.0625 C-4.83277344 22.05347656 -3.72804688 22.04445313 -2.58984375 22.03515625 C-1.73519531 22.02355469 -0.88054687 22.01195313 0 22 C2.66845048 15.82920827 3.26346073 8.53283058 0.984375 2.16015625 C0.49710937 1.09087891 0.49710937 1.09087891 0 0 Z " fill="#FDF664" transform="translate(492,58)"/>
<path d="M0 0 C1.65 0 3.3 0 5 0 C5 6.93 5 13.86 5 21 C3.35 21 1.7 21 0 21 C0 14.07 0 7.14 0 0 Z " fill="#D4D4D3" transform="translate(433,133)"/>
<path d="M0 0 C3.0625 0.3125 3.0625 0.3125 4.9375 1.4375 C6.58399743 4.18166239 6.46214378 6.1819571 6.0625 9.3125 C2.61220958 11.61269361 1.11695642 11.74382515 -2.9375 11.3125 C-5.23913882 7.86004176 -5.28240322 6.36511287 -4.9375 2.3125 C-2.9375 0.3125 -2.9375 0.3125 0 0 Z " fill="#FEFCCA" transform="translate(484.9375,62.6875)"/>
<path d="M0 0 C10.395 0.99 10.395 0.99 21 2 C21 3.32 21 4.64 21 6 C13.53112105 8.12905975 6.84403285 7.57079975 0 4 C0 2.68 0 1.36 0 0 Z " fill="#F1ED93" transform="translate(471,94)"/>
<path d="M0 0 C6.93 0 13.86 0 21 0 C19.02 0.99 19.02 0.99 17 2 C16.01 3.485 16.01 3.485 15 5 C12.37302936 5.22137393 9.99106036 5.28162025 7.375 5.1875 C6.66859375 5.17396484 5.9621875 5.16042969 5.234375 5.14648438 C3.48925872 5.1111104 1.74453392 5.05730221 0 5 C0 3.35 0 1.7 0 0 Z " fill="#F5F5F2" transform="translate(439,46)"/>
<path d="M0 0 C3.83377596 0.58034223 5.89328118 2.3263587 8.75 4.875 C9.54921875 5.57367188 10.3484375 6.27234375 11.171875 6.9921875 C13 9 13 9 13 12 C13.66 12 14.32 12 15 12 C17.11667468 19.93753006 16.57028877 26.90928033 13.0703125 34.28515625 C12 36 12 36 10 37 C11.875 31.25 11.875 31.25 13 29 C13.90240672 20.73653275 12.98103383 14.73194269 8 8 C6.2271912 5.83421182 6.2271912 5.83421182 4 5.6875 C3.34 5.460625 2.68 5.23375 2 5 C0.75 2.4375 0.75 2.4375 0 0 Z " fill="#FE950D" transform="translate(495,45)"/>
<path d="M0 0 C3.125 1.8125 3.125 1.8125 5 5 C5.56515437 8.74553286 5.66767879 12.26656274 5 16 C4.01 17.32 3.02 18.64 2 20 C2 14.39 2 8.78 2 3 C0.246875 2.938125 -1.50625 2.87625 -3.3125 2.8125 C-4.29863281 2.77769531 -5.28476562 2.74289063 -6.30078125 2.70703125 C-8.98638579 2.78677942 -8.98638579 2.78677942 -10.8125 4.21875 C-12.29249097 6.43873645 -12.49552292 8.03821627 -12.6875 10.6875 C-12.78611328 11.89986328 -12.78611328 11.89986328 -12.88671875 13.13671875 C-12.92410156 13.75160156 -12.96148437 14.36648437 -13 15 C-15 13 -15 13 -15.4375 9.75 C-15.00555024 6.04757347 -14.34306578 3.85712992 -11.7578125 1.109375 C-8.08091124 -1.21115824 -4.12277933 -0.86510779 0 0 Z " fill="#FDF994" transform="translate(490,58)"/>
<path d="M0 0 C1.65 0 3.3 0 5 0 C5 1.32 5 2.64 5 4 C7.74991832 4.16811728 10.49992112 4.3345481 13.25 4.5 C14.41595703 4.57154297 14.41595703 4.57154297 15.60546875 4.64453125 C16.35957031 4.68964844 17.11367188 4.73476562 17.890625 4.78125 C18.92751465 4.8440918 18.92751465 4.8440918 19.98535156 4.90820312 C21.98838965 4.99947098 23.9948837 5 26 5 C26 5.66 26 6.32 26 7 C24.68 7 23.36 7 22 7 C22 7.66 22 8.32 22 9 C20.54176788 9.0270043 19.08339325 9.04639787 17.625 9.0625 C16.81289063 9.07410156 16.00078125 9.08570312 15.1640625 9.09765625 C13 9 13 9 11 8 C11 7.34 11 6.68 11 6 C9.39125 6.0928125 9.39125 6.0928125 7.75 6.1875 C3.9124411 5.99562206 2.56969002 5.77526522 0 3 C0 2.01 0 1.02 0 0 Z " fill="#F7F063" transform="translate(466,85)"/>
<path d="M0 0 C-0.8125 2.4375 -0.8125 2.4375 -2 5 C-2.99 5.33 -3.98 5.66 -5 6 C-7.69671257 10.93777371 -9.41148865 16.40914215 -10 22 C-10.66 22 -11.32 22 -12 22 C-12.54330269 15.34454208 -11.77304004 11.54165256 -8 6 C-8.66 5.34 -9.32 4.68 -10 4 C-8 1 -8 1 -6.125 0.3125 C-4 0 -4 0 0 0 Z " fill="#EAE7A8" transform="translate(464,46)"/>
<path d="M0 0 C3.43370999 1.38502588 4.73405974 2.63124387 6.25 6 C9.02816483 12.8792653 9.0572398 19.06421843 6.25 25.9375 C4.67077299 29.1297946 3.22551822 31.27204381 0 33 C0.54341623 29.08740311 1.66579882 27.11226824 4 24 C5.66590293 18.54795406 5.80820602 11.42461807 4 6 C2.70644173 4.62804426 1.37701298 3.28817344 0 2 C0 1.34 0 0.68 0 0 Z " fill="#FED922" transform="translate(496,53)"/>
<path d="M0 0 C3.93265896 -0.04947698 7.86519714 -0.08575578 11.7980957 -0.10986328 C13.79319618 -0.12485495 15.78820946 -0.15026731 17.78320312 -0.17578125 C19.66362305 -0.18544922 19.66362305 -0.18544922 21.58203125 -0.1953125 C22.73936768 -0.20578613 23.8967041 -0.21625977 25.08911133 -0.22705078 C28 0 28 0 31 2 C30.67 2.66 30.34 3.32 30 4 C29.01 3.34 28.02 2.68 27 2 C24.61322924 1.70547416 22.21373906 1.5071783 19.8125 1.375 C18.54019531 1.30023438 17.26789063 1.22546875 15.95703125 1.1484375 C14.98121094 1.09945312 14.00539063 1.05046875 13 1 C13 1.66 13 2.32 13 3 C10.11584117 4.44207941 7.58278472 4.09394887 4.375 4.0625 C3.18648438 4.05347656 1.99796875 4.04445313 0.7734375 4.03515625 C-0.14179688 4.02355469 -1.05703125 4.01195312 -2 4 C-1.34 2.68 -0.68 1.36 0 0 Z " fill="#BAB037" transform="translate(464,42)"/>
<path d="M0 0 C4.62 0 9.24 0 14 0 C14.33 1.65 14.66 3.3 15 5 C10.05 5 5.1 5 0 5 C0 3.35 0 1.7 0 0 Z " fill="#BFBEBE" transform="translate(439,76)"/>
<path d="M0 0 C5.94 0 11.88 0 18 0 C18 1.32 18 2.64 18 4 C12.06 4 6.12 4 0 4 C0 2.68 0 1.36 0 0 Z " fill="#E5E5E2" transform="translate(439,72)"/>
<path d="M0 0 C0.495 0.33 0.99 0.66 1.5 1 C-0.5 2 -0.5 2 -4.1875 1.8125 C-8.99985945 1.74237454 -11.5858022 3.26006154 -15.5 6 C-17.92130331 9.63195496 -17.71022785 11.38349348 -17.625 15.6875 C-17.60695313 16.86699219 -17.58890625 18.04648438 -17.5703125 19.26171875 C-17.54710937 20.16535156 -17.52390625 21.06898437 -17.5 22 C-20.28871997 17.81692005 -20.67399528 13.98534303 -20.5 9 C-19.30511937 4.94942982 -17.21781953 2.50573649 -13.75 0.0625 C-9.0154561 -1.48533166 -4.75218585 -1.90087434 0 0 Z " fill="#FDF667" transform="translate(490.5,55)"/>
<path d="M0 0 C2.375 1.4375 2.375 1.4375 4 4 C4.32338916 7.03046934 4.23343996 9.96528054 4 13 C1.69765978 14.41196151 0.40528247 15.02997047 -2.32421875 14.828125 C-3.10410156 14.63734375 -3.88398438 14.4465625 -4.6875 14.25 C-5.47511719 14.06953125 -6.26273437 13.8890625 -7.07421875 13.703125 C-9 13 -9 13 -10 11 C-10.35872645 7.12575435 -10.56710729 4.85066094 -8.375 1.5625 C-5.28314769 -0.47161336 -3.63632575 -0.60605429 0 0 Z M-8 4 C-8.34490322 8.05261287 -8.30163882 9.54754176 -6 13 C-1.94554358 13.43132515 -0.45029042 13.30019361 3 11 C3.39964378 7.8694571 3.52149743 5.86916239 1.875 3.125 C-1.71222721 0.97266367 -5.05922791 1.05922791 -8 4 Z " fill="#FEFAB3" transform="translate(488,61)"/>
<path d="M0 0 C1.65 0 3.3 0 5 0 C5 4.29 5 8.58 5 13 C3.35 13 1.7 13 0 13 C0 8.71 0 4.42 0 0 Z " fill="#8E8E8E" transform="translate(433,98)"/>
<path d="M0 0 C2.22855574 -0.0814222 4.45797655 -0.13938079 6.6875 -0.1875 C8.54955078 -0.23970703 8.54955078 -0.23970703 10.44921875 -0.29296875 C14.22892499 0.0188882 16.11936466 0.5489814 19 3 C19 4.32 19 5.64 19 7 C18.01 7 17.02 7 16 7 C15.34 6.01 14.68 5.02 14 4 C11.22737745 3.61605333 8.65676472 3.39657752 5.875 3.3125 C5.12089844 3.27833984 4.36679687 3.24417969 3.58984375 3.20898438 C1.72708799 3.12645722 -0.13643326 3.06155289 -2 3 C-1.34 2.67 -0.68 2.34 0 2 C0 1.34 0 0.68 0 0 Z " fill="#C4BE33" transform="translate(477,43)"/>
<path d="M0 0 C0 5.28 0 10.56 0 16 C-0.66 16.33 -1.32 16.66 -2 17 C-3.13350534 19.01669827 -3.13350534 19.01669827 -4 21 C-4.08107646 18.24940619 -4.14052813 15.50120979 -4.1875 12.75 C-4.21263672 11.97269531 -4.23777344 11.19539063 -4.26367188 10.39453125 C-4.33803676 4.59407 -4.33803676 4.59407 -2.55078125 1.453125 C-1 0 -1 0 0 0 Z " fill="#E2DA31" transform="translate(496,80)"/>
<path d="M0 0 C4.95 0 9.9 0 15 0 C15.33 1.32 15.66 2.64 16 4 C10.72 4 5.44 4 0 4 C0 2.68 0 1.36 0 0 Z " fill="#E8E8E1" transform="translate(439,81)"/>
<path d="M0 0 C0.33 0 0.66 0 1 0 C1.39050428 3.3370366 1.24937535 4.65641618 -0.7578125 7.421875 C-1.92957031 8.57429688 -1.92957031 8.57429688 -3.125 9.75 C-3.89070313 10.52859375 -4.65640625 11.3071875 -5.4453125 12.109375 C-8.36006586 14.26647076 -10.42557232 14.6891802 -14 15 C-13.67 13.68 -13.34 12.36 -13 11 C-12.443125 10.938125 -11.88625 10.87625 -11.3125 10.8125 C-7.02959859 9.3076968 -4.51758148 5.64697685 -1.75 2.1875 C-1.1725 1.465625 -0.595 0.74375 0 0 Z " fill="#FF3A01" transform="translate(511,85)"/>
<path d="M0 0 C2.64 0 5.28 0 8 0 C6.71034824 1.37562854 5.37310707 2.70766393 4 4 C3.34 4 2.68 4 2 4 C1.7525 4.556875 1.505 5.11375 1.25 5.6875 C-0.21606015 8.39971127 -2.02989471 10.63587365 -4 13 C-4.63934602 7.88523181 -2.40533547 4.32745622 0 0 Z M-5 13 C-4.67 13 -4.34 13 -4 13 C-4 15.31 -4 17.62 -4 20 C-4.99 20.495 -4.99 20.495 -6 21 C-5.67 18.36 -5.34 15.72 -5 13 Z " fill="#F1EB75" transform="translate(464,46)"/>
<path d="M0 0 C0.74056641 0.00902344 1.48113281 0.01804688 2.24414062 0.02734375 C4.05873467 0.05075787 5.87316071 0.08662385 7.6875 0.125 C7.6875 1.115 7.6875 2.105 7.6875 3.125 C6.34945313 3.09019531 6.34945313 3.09019531 4.984375 3.0546875 C3.81390625 3.03664062 2.6434375 3.01859375 1.4375 3 C0.27734375 2.97679687 -0.8828125 2.95359375 -2.078125 2.9296875 C-5.21371476 3.11903471 -6.64578719 3.62789807 -9.3125 5.125 C-12.5625 5.25 -12.5625 5.25 -15.3125 5.125 C-11.50706505 -0.58315242 -6.38215752 -0.14828963 0 0 Z " fill="#FE5504" transform="translate(485.3125,36.875)"/>
<path d="M0 0 C1.28132813 0.00902344 2.56265625 0.01804688 3.8828125 0.02734375 C4.87023437 0.03894531 5.85765625 0.05054688 6.875 0.0625 C6.875 1.0525 6.875 2.0425 6.875 3.0625 C5.86179687 3.02769531 5.86179687 3.02769531 4.828125 2.9921875 C3.93609375 2.97414062 3.0440625 2.95609375 2.125 2.9375 C1.24328125 2.91429687 0.3615625 2.89109375 -0.546875 2.8671875 C-3.27714126 3.07402585 -4.73423194 3.80832659 -7.125 5.0625 C-9.45703812 5.1402346 -11.79339059 5.15217728 -14.125 5.0625 C-8.90640511 0.80522522 -6.78391079 -0.06167192 0 0 Z " fill="#FCF44D" transform="translate(484.125,45.9375)"/>
<path d="M0 0 C1.24233398 -0.01836914 1.24233398 -0.01836914 2.50976562 -0.03710938 C3.30189453 -0.03904297 4.09402344 -0.04097656 4.91015625 -0.04296875 C5.63468994 -0.04707764 6.35922363 -0.05118652 7.10571289 -0.05541992 C8.9375 0.1875 8.9375 0.1875 10.9375 2.1875 C9.88691406 2.15269531 8.83632813 2.11789063 7.75390625 2.08203125 C-0.07277132 1.90116461 -6.79643596 1.906568 -14.0625 5.1875 C-15.073125 5.579375 -16.08375 5.97125 -17.125 6.375 C-17.764375 6.643125 -18.40375 6.91125 -19.0625 7.1875 C-19.0625 7.8475 -19.0625 8.5075 -19.0625 9.1875 C-19.7225 9.1875 -20.3825 9.1875 -21.0625 9.1875 C-20.8046875 7.32421875 -20.8046875 7.32421875 -20.0625 5.1875 C-18.3203125 3.95703125 -18.3203125 3.95703125 -16.1875 3 C-15.13949219 2.51466797 -15.13949219 2.51466797 -14.0703125 2.01953125 C-9.22883074 0.01323628 -5.16096401 0.00403516 0 0 Z " fill="#FE2200" transform="translate(485.0625,32.8125)"/>
<path d="M0 0 C0.33 1.32 0.66 2.64 1 4 C-3.80239407 8.77744657 -7.07011948 11.85562749 -14 12 C-14 11.34 -14 10.68 -14 10 C-12.989375 9.649375 -11.97875 9.29875 -10.9375 8.9375 C-6.32008425 6.99630073 -3.30612768 3.66789241 0 0 Z " fill="#FF1800" transform="translate(511,90)"/>
<path d="M0 0 C4.875 2.75 4.875 2.75 6 5 C6.37937519 10.69062784 6.00974609 13.98375652 3 19 C2.34 19 1.68 19 1 19 C1.33 18.01 1.66 17.02 2 16 C2.1190686 14.21120198 2.17522113 12.4177144 2.1875 10.625 C2.20167969 9.68914062 2.21585937 8.75328125 2.23046875 7.7890625 C1.98668108 4.83881846 1.23112508 2.67635888 0 0 Z " fill="#F7EB70" transform="translate(492,58)"/>
<path d="M0 0 C1.08667969 0.02707031 2.17335938 0.05414063 3.29296875 0.08203125 C4.54013672 0.13423828 4.54013672 0.13423828 5.8125 0.1875 C6.1425 1.1775 6.4725 2.1675 6.8125 3.1875 C7.4725 3.5175 8.1325 3.8475 8.8125 4.1875 C8.8125 5.8375 8.8125 7.4875 8.8125 9.1875 C8.049375 8.383125 7.28625 7.57875 6.5 6.75 C2.86167919 3.28090341 0.45865358 3.06222528 -4.375 3.125 C-5.27605469 3.13402344 -6.17710937 3.14304688 -7.10546875 3.15234375 C-8.13607422 3.16974609 -8.13607422 3.16974609 -9.1875 3.1875 C-6.54246503 -0.34849411 -4.24021315 -0.13678107 0 0 Z " fill="#FDF559" transform="translate(487.1875,51.8125)"/>
<path d="M0 0 C1.98 0 3.96 0 6 0 C6 7.26 6 14.52 6 22 C5.67 22 5.34 22 5 22 C5 16.39 5 10.78 5 5 C3.35 5 1.7 5 0 5 C0 3.35 0 1.7 0 0 Z " fill="#B6B6B6" transform="translate(433,46)"/>
<path d="M0 0 C1.32 0 2.64 0 4 0 C4 1.32 4 2.64 4 4 C-3.46887895 6.12905975 -10.15596715 5.57079975 -17 2 C-13.25 0.875 -13.25 0.875 -11 2 C-9.12943209 2.2275015 -7.25314042 2.40962811 -5.375 2.5625 C-4.37210937 2.64628906 -3.36921875 2.73007813 -2.3359375 2.81640625 C-1.56507813 2.87699219 -0.79421875 2.93757813 0 3 C0 2.01 0 1.02 0 0 Z " fill="#F3F0A8" transform="translate(488,96)"/>
<path d="M0 0 C0.33 0 0.66 0 1 0 C1.1875 2.875 1.1875 2.875 1 6 C0.01 6.66 -0.98 7.32 -2 8 C-2.391875 8.7425 -2.78375 9.485 -3.1875 10.25 C-5.38506144 13.58423116 -7.92675043 15.38591883 -11.16015625 17.66796875 C-13.11414795 19.00875771 -13.11414795 19.00875771 -15 21 C-15 18.8125 -15 18.8125 -14 16 C-12.05580656 14.58326711 -10.02080432 13.44038001 -7.93359375 12.24609375 C-5.32527127 10.56517482 -4.29443833 8.79326165 -3 6 C-2.443125 4.906875 -1.88625 3.81375 -1.3125 2.6875 C-0.6628125 1.3571875 -0.6628125 1.3571875 0 0 Z " fill="#FC7609" transform="translate(511,75)"/>
<path d="M0 0 C7.75 -0.125 7.75 -0.125 10 1 C10 2.32 10 3.64 10 5 C7.03 5 4.06 5 1 5 C0.67 3.35 0.34 1.7 0 0 Z " fill="#F0E843" transform="translate(461,76)"/>
<path d="M0 0 C3.63 0 7.26 0 11 0 C11 1.32 11 2.64 11 4 C7.37 4 3.74 4 0 4 C0 2.68 0 1.36 0 0 Z " fill="#BBBBB7" transform="translate(439,68)"/>
<path d="M0 0 C4.02003194 2.12168352 6.53767776 4.1587773 9 8 C9.3666612 10.86977346 9.51793311 13.27611124 9.4375 16.125 C9.44458984 16.84042969 9.45167969 17.55585937 9.45898438 18.29296875 C9.39592086 23.48358149 9.39592086 23.48358149 7.47265625 25.9921875 C6.98667969 26.32476562 6.50070312 26.65734375 6 27 C6.15855469 26.43667969 6.31710937 25.87335938 6.48046875 25.29296875 C8.07483103 18.25619686 7.18864007 12.29363387 4.16796875 5.8125 C2.97350974 3.69421175 2.97350974 3.69421175 0 2 C0 1.34 0 0.68 0 0 Z " fill="#FECE19" transform="translate(496,51)"/>
<path d="M0 0 C2.64 0 5.28 0 8 0 C8.33 1.65 8.66 3.3 9 5 C6.36 5 3.72 5 1 5 C0.67 3.35 0.34 1.7 0 0 Z " fill="#DFD96B" transform="translate(453,76)"/>
<path d="M0 0 C1.984375 1.05078125 1.984375 1.05078125 4 3 C4.390625 6.35546875 4.390625 6.35546875 4.25 10.1875 C4.21390625 11.45980469 4.1778125 12.73210937 4.140625 14.04296875 C4.09421875 15.01878906 4.0478125 15.99460937 4 17 C3.01 17 2.02 17 1 17 C0.67 17.66 0.34 18.32 0 19 C0.165 18.34 0.33 17.68 0.5 17 C1.46820325 11.19078047 1.14961613 5.74808065 0 0 Z " fill="#FEE24E" transform="translate(496,57)"/>
<path d="M0 0 C5.61 0 11.22 0 17 0 C16.67 0.99 16.34 1.98 16 3 C13.70839681 3.02692484 11.41670454 3.04636124 9.125 3.0625 C7.84882813 3.07410156 6.57265625 3.08570312 5.2578125 3.09765625 C2 3 2 3 0 2 C0 1.34 0 0.68 0 0 Z " fill="#FCF550" transform="translate(476,82)"/>
<path d="M0 0 C6.36404585 0.39775287 10.85076995 5.12631226 15.4375 9.125 C17.09379597 11.11255516 17.63713966 12.4599776 18 15 C17.34 15 16.68 15 16 15 C15.67 14.01 15.34 13.02 15 12 C10.60095631 7.37563943 5.63291227 3.93380848 0 1 C0 0.67 0 0.34 0 0 Z " fill="#FE8009" transform="translate(492,42)"/>
<path d="M0 0 C2.97 0 5.94 0 9 0 C9 1.32 9 2.64 9 4 C6.03 4 3.06 4 0 4 C0 2.68 0 1.36 0 0 Z " fill="#D2CE7E" transform="translate(450,68)"/>
<path d="M0 0 C3 3 3 3 3.3984375 5.55859375 C3.39070313 6.50863281 3.38296875 7.45867187 3.375 8.4375 C3.38273437 9.38496094 3.39046875 10.33242187 3.3984375 11.30859375 C3 14 3 14 0 18 C0 12.06 0 6.12 0 0 Z " fill="#F6F28B" transform="translate(492,60)"/>
<path d="M0 0 C-0.66 1.65 -1.32 3.3 -2 5 C-4.64 5 -7.28 5 -10 5 C-9.25 3.0625 -9.25 3.0625 -8 1 C-5.17805079 -0.12877968 -3.12179761 0 0 0 Z " fill="#F9F6BA" transform="translate(464,46)"/>
<path d="M0 0 C2.97 0 5.94 0 9 0 C7.4375 2 7.4375 2 5 4 C1.25 4.25 1.25 4.25 -2 4 C-1.34 2.68 -0.68 1.36 0 0 Z " fill="#9F9B4A" transform="translate(464,42)"/>
<path d="M0 0 C5.37305699 -0.44041451 5.37305699 -0.44041451 8 0 C10 2.5 10 2.5 11 5 C9.02 5 7.04 5 5 5 C4.731875 4.360625 4.46375 3.72125 4.1875 3.0625 C3.11332248 0.66868314 3.11332248 0.66868314 0 0 Z " fill="#EBE8B7" transform="translate(455,89)"/>
<path d="M0 0 C2.64 0 5.28 0 8 0 C4.92000054 3.67230705 2.7517398 4.56802365 -2 5 C-1.34 3.35 -0.68 1.7 0 0 Z " fill="#F9F486" transform="translate(464,46)"/>
<path d="M0 0 C1.98 0 3.96 0 6 0 C6 1.65 6 3.3 6 5 C4.35 5 2.7 5 1 5 C0.67 3.35 0.34 1.7 0 0 Z " fill="#FEFEE7" transform="translate(482,66)"/>
<path d="M0 0 C4.62 0 9.24 0 14 0 C14.33 1.65 14.66 3.3 15 5 C13.68 5 12.36 5 11 5 C11 3.68 11 2.36 11 1 C7.37 1 3.74 1 0 1 C0 0.67 0 0.34 0 0 Z " fill="#CAC8B3" transform="translate(439,76)"/>
<path d="M0 0 C2.31 0 4.62 0 7 0 C7 1.32 7 2.64 7 4 C4.69 4 2.38 4 0 4 C0 2.68 0 1.36 0 0 Z " fill="#ECE9A8" transform="translate(450,72)"/>
<path d="M0 0 C2.31 0 4.62 0 7 0 C7 1.32 7 2.64 7 4 C4.69 4 2.38 4 0 4 C0 2.68 0 1.36 0 0 Z " fill="#F4EE69" transform="translate(457,72)"/>
<path d="M0 0 C0.66 0.33 1.32 0.66 2 1 C2 4.96 2 8.92 2 13 C1.38125 12.195625 0.7625 11.39125 0.125 10.5625 C-1.74164041 7.96125481 -1.74164041 7.96125481 -4 7 C-3.67 6.34 -3.34 5.68 -3 5 C-2.01 5.33 -1.02 5.66 0 6 C0 4.02 0 2.04 0 0 Z " fill="#FF9003" transform="translate(510,40)"/>
<path d="M0 0 C2.08326131 -0.02709444 4.16662441 -0.04643873 6.25 -0.0625 C7.41015625 -0.07410156 8.5703125 -0.08570313 9.765625 -0.09765625 C12.40977128 -0.01782092 14.49826091 0.21356222 17 1 C17 2.32 17 3.64 17 5 C16.01 5 15.02 5 14 5 C13.34 4.01 12.68 3.02 12 2 C9.11404054 1.41518879 9.11404054 1.41518879 5.875 1.3125 C4.77929688 1.24675781 3.68359375 1.18101563 2.5546875 1.11328125 C1.71164062 1.07589844 0.86859375 1.03851563 0 1 C0 0.67 0 0.34 0 0 Z " fill="#D1C92D" transform="translate(479,45)"/>
<path d="M0 0 C2.97 0 5.94 0 9 0 C9 1.32 9 2.64 9 4 C5.65626525 3.44271087 2.96687001 2.64826111 0 1 C0 0.67 0 0.34 0 0 Z " fill="#CECC92" transform="translate(462,94)"/>
<path d="M0 0 C0.66 0 1.32 0 2 0 C2 1.98 2 3.96 2 6 C1.01 6.495 1.01 6.495 0 7 C-1.13350534 9.01669827 -1.13350534 9.01669827 -2 11 C-2.25 3.375 -2.25 3.375 0 0 Z " fill="#B2AD42" transform="translate(494,90)"/>
<path d="M0 0 C2.31 0 4.62 0 7 0 C7.33 1.32 7.66 2.64 8 4 C5.69 4 3.38 4 1 4 C0.67 2.68 0.34 1.36 0 0 Z " fill="#D9D474" transform="translate(459,85)"/>
<path d="M0 0 C0.763125 0.0825 1.52625 0.165 2.3125 0.25 C2.3125 1.57 2.3125 2.89 2.3125 4.25 C-0.3275 4.25 -2.9675 4.25 -5.6875 4.25 C-3.34903846 0.31153846 -3.34903846 0.31153846 0 0 Z " fill="#7C8A9C" transform="translate(378.6875,36.75)"/>
<path d="M0 0 C1.65 0 3.3 0 5 0 C5 1.65 5 3.3 5 5 C3.35 5 1.7 5 0 5 C0 3.35 0 1.7 0 0 Z " fill="#A3A3A3" transform="translate(433,128)"/>
<path d="M0 0 C1.65 0 3.3 0 5 0 C5 1.65 5 3.3 5 5 C3.35 5 1.7 5 0 5 C0 3.35 0 1.7 0 0 Z " fill="#A5A5A5" transform="translate(433,89)"/>
<path d="M0 0 C1.65 0 3.3 0 5 0 C5 1.65 5 3.3 5 5 C3.35 5 1.7 5 0 5 C0 3.35 0 1.7 0 0 Z " fill="#8B8B8A" transform="translate(433,76)"/>
<path d="M0 0 C0.598125 0.226875 1.19625 0.45375 1.8125 0.6875 C1.8125 1.3475 1.8125 2.0075 1.8125 2.6875 C0.6678125 3.0896875 0.6678125 3.0896875 -0.5 3.5 C-3.06130884 4.63174112 -4.38442938 5.59973401 -6.1875 7.6875 C-5.82037028 4.97074005 -5.46005401 3.07686287 -3.875 0.8125 C-2.1875 -0.3125 -2.1875 -0.3125 0 0 Z " fill="#A5B4C8" transform="translate(378.1875,34.3125)"/>
<path d="M0 0 C0.66 0 1.32 0 2 0 C2 2.64 2 5.28 2 8 C1.01 8.33 0.02 8.66 -1 9 C-1.09765625 2.84765625 -1.09765625 2.84765625 -1 1 C-0.67 0.67 -0.34 0.34 0 0 Z " fill="#797747" transform="translate(494,96)"/>
<path d="M0 0 C1.98 0 3.96 0 6 0 C6 1.32 6 2.64 6 4 C4.02 4 2.04 4 0 4 C0 2.68 0 1.36 0 0 Z " fill="#8A8A8A" transform="translate(433,68)"/>
<path d="M0 0 C1.98 0 3.96 0 6 0 C6.33 1.32 6.66 2.64 7 4 C5.35 4 3.7 4 2 4 C1.34 2.68 0.68 1.36 0 0 Z " fill="#CAC89B" transform="translate(453,85)"/>
<path d="M0 0 C-3.60957611 3.2910841 -6.12637153 4.54663921 -11 5 C-7.17906575 1.05170128 -5.52310605 -0.1453449 0 0 Z " fill="#FBF567" transform="translate(477,46)"/>
<path d="M0 0 C0.33 0.66 0.66 1.32 1 2 C1.99 2 2.98 2 4 2 C4 3.98 4 5.96 4 8 C3.01 7.67 2.02 7.34 1 7 C0.67 4.69 0.34 2.38 0 0 Z " fill="#ECE432" transform="translate(492,48)"/>
<path d="M0 0 C6.64615385 2.46153846 6.64615385 2.46153846 8.4375 5.1875 C8.623125 5.785625 8.80875 6.38375 9 7 C5.56072421 5.7580393 2.74792181 4.44259716 0 2 C0 1.34 0 0.68 0 0 Z " fill="#FF4002" transform="translate(500,39)"/>
<path d="M0 0 C1.65 0 3.3 0 5 0 C5 1.32 5 2.64 5 4 C3.35 4 1.7 4 0 4 C0 2.68 0 1.36 0 0 Z " fill="#B4B4B4" transform="translate(433,154)"/>
<path d="M0 0 C1.65 0 3.3 0 5 0 C5 1.32 5 2.64 5 4 C3.35 4 1.7 4 0 4 C0 2.68 0 1.36 0 0 Z " fill="#C0C0C0" transform="translate(433,124)"/>
<path d="M0 0 C1.65 0 3.3 0 5 0 C5 1.32 5 2.64 5 4 C3.35 4 1.7 4 0 4 C0 2.68 0 1.36 0 0 Z " fill="#B5B4B4" transform="translate(433,115)"/>
<path d="M0 0 C1.65 0 3.3 0 5 0 C5 1.32 5 2.64 5 4 C3.35 4 1.7 4 0 4 C0 2.68 0 1.36 0 0 Z " fill="#90908F" transform="translate(433,111)"/>
<path d="M0 0 C1.65 0 3.3 0 5 0 C5 1.32 5 2.64 5 4 C3.35 4 1.7 4 0 4 C0 2.68 0 1.36 0 0 Z " fill="#AEAEAE" transform="translate(433,107)"/>
<path d="M0 0 C1.65 0 3.3 0 5 0 C5 1.32 5 2.64 5 4 C3.35 4 1.7 4 0 4 C0 2.68 0 1.36 0 0 Z " fill="#A9A9A9" transform="translate(433,98)"/>
<path d="M0 0 C1.65 0 3.3 0 5 0 C5 1.32 5 2.64 5 4 C3.35 4 1.7 4 0 4 C0 2.68 0 1.36 0 0 Z " fill="#898989" transform="translate(433,94)"/>
<path d="M0 0 C1.65 0 3.3 0 5 0 C5 1.32 5 2.64 5 4 C3.35 4 1.7 4 0 4 C0 2.68 0 1.36 0 0 Z " fill="#898988" transform="translate(433,85)"/>
<path d="M0 0 C1.65 0 3.3 0 5 0 C5 1.32 5 2.64 5 4 C3.35 4 1.7 4 0 4 C0 2.68 0 1.36 0 0 Z " fill="#A7A7A7" transform="translate(433,81)"/>
<path d="M0 0 C1.65 0 3.3 0 5 0 C5 1.32 5 2.64 5 4 C3.35 4 1.7 4 0 4 C0 2.68 0 1.36 0 0 Z " fill="#A5A5A5" transform="translate(433,72)"/>
<path d="M0 0 C1.65 0 3.3 0 5 0 C5 1.32 5 2.64 5 4 C3.35 3.67 1.7 3.34 0 3 C0 2.01 0 1.02 0 0 Z " fill="#E6DF57" transform="translate(466,85)"/>
<path d="M0 0 C1.32 0 2.64 0 4 0 C4.33 1.65 4.66 3.3 5 5 C3.68 5 2.36 5 1 5 C0.67 3.35 0.34 1.7 0 0 Z " fill="#D4D089" transform="translate(453,76)"/>
<path d="M0 0 C3.93846154 3.32307692 3.93846154 3.32307692 4.25 6.75 C4.1675 7.4925 4.085 8.235 4 9 C2 7.875 2 7.875 0 6 C-0.25 2.8125 -0.25 2.8125 0 0 Z " fill="#F3EC57" transform="translate(492,52)"/>
<path d="M0 0 C0.33 0 0.66 0 1 0 C1 1.65 1 3.3 1 5 C-0.98 5.99 -0.98 5.99 -3 7 C-2.67 5.35 -2.34 3.7 -2 2 C-1.34 2 -0.68 2 0 2 C0 1.34 0 0.68 0 0 Z " fill="#F2EB5A" transform="translate(495,75)"/>
<path d="M0 0 C1.32 0 2.64 0 4 0 C4.66 1.32 5.32 2.64 6 4 C4.35 4 2.7 4 1 4 C0.67 2.68 0.34 1.36 0 0 Z " fill="#EEEBAA" transform="translate(454,81)"/>
<path d="M0 0 C1.32 0.33 2.64 0.66 4 1 C3.01 2.485 3.01 2.485 2 4 C-0.625 4.1875 -0.625 4.1875 -3 4 C-2.01 2.68 -1.02 1.36 0 0 Z " fill="#87845D" transform="translate(460,42)"/>
</svg>
